<?xml version="1.0" encoding="UTF-8" standalone="no"?>
<!-- Created with Inkscape (http://www.inkscape.org/) -->

<svg
   xmlns:dc="http://purl.org/dc/elements/1.1/"
   xmlns:cc="http://creativecommons.org/ns#"
   xmlns:rdf="http://www.w3.org/1999/02/22-rdf-syntax-ns#"
   xmlns:svg="http://www.w3.org/2000/svg"
   xmlns="http://www.w3.org/2000/svg"
   xmlns:sodipodi="http://sodipodi.sourceforge.net/DTD/sodipodi-0.dtd"
   xmlns:inkscape="http://www.inkscape.org/namespaces/inkscape"
   width="349.42206"
   height="282.875"
   id="svg2"
   version="1.1"
   inkscape:version="0.48.4 r9939"
   sodipodi:docname="relations_2.svg">
  <defs
     id="defs4">
    <marker
       inkscape:stockid="Arrow1Lstart"
       orient="auto"
       refY="0"
       refX="0"
       id="Arrow1Lstart"
       style="overflow:visible">
      <path
         id="path4278"
         d="M 0,0 5,-5 -12.5,0 5,5 0,0 z"
         style="fill-rule:evenodd;stroke:#000000;stroke-width:1pt"
         transform="matrix(0.8,0,0,0.8,10,0)"
         inkscape:connector-curvature="0" />
    </marker>
    <marker
       inkscape:stockid="Arrow1Lend"
       orient="auto"
       refY="0"
       refX="0"
       id="Arrow1Lend"
       style="overflow:visible">
      <path
         id="path3844"
         d="M 0,0 5,-5 -12.5,0 5,5 0,0 z"
         style="fill-rule:evenodd;stroke:#000000;stroke-width:1pt"
         transform="matrix(-0.8,0,0,-0.8,-10,0)"
         inkscape:connector-curvature="0" />
    </marker>
    <marker
       inkscape:stockid="Arrow1Lend"
       orient="auto"
       refY="0"
       refX="0"
       id="Arrow1Lend-8"
       style="overflow:visible">
      <path
         inkscape:connector-curvature="0"
         id="path3844-9"
         d="M 0,0 5,-5 -12.5,0 5,5 0,0 z"
         style="fill-rule:evenodd;stroke:#000000;stroke-width:1pt"
         transform="matrix(-0.8,0,0,-0.8,-10,0)" />
    </marker>
    <marker
       inkscape:stockid="Arrow1Lend"
       orient="auto"
       refY="0"
       refX="0"
       id="Arrow1Lend-6"
       style="overflow:visible">
      <path
         inkscape:connector-curvature="0"
         id="path3844-7"
         d="M 0,0 5,-5 -12.5,0 5,5 0,0 z"
         style="fill-rule:evenodd;stroke:#000000;stroke-width:1pt"
         transform="matrix(-0.8,0,0,-0.8,-10,0)" />
    </marker>
    <marker
       inkscape:stockid="Arrow1Lend"
       orient="auto"
       refY="0"
       refX="0"
       id="Arrow1Lend-5"
       style="overflow:visible">
      <path
         inkscape:connector-curvature="0"
         id="path3844-77"
         d="M 0,0 5,-5 -12.5,0 5,5 0,0 z"
         style="fill-rule:evenodd;stroke:#000000;stroke-width:1pt"
         transform="matrix(-0.8,0,0,-0.8,-10,0)" />
    </marker>
    <marker
       inkscape:stockid="Arrow1Lend"
       orient="auto"
       refY="0"
       refX="0"
       id="marker4347"
       style="overflow:visible">
      <path
         inkscape:connector-curvature="0"
         id="path4349"
         d="M 0,0 5,-5 -12.5,0 5,5 0,0 z"
         style="fill-rule:evenodd;stroke:#000000;stroke-width:1pt"
         transform="matrix(-0.8,0,0,-0.8,-10,0)" />
    </marker>
    <marker
       inkscape:stockid="Arrow1Lend"
       orient="auto"
       refY="0"
       refX="0"
       id="marker4351"
       style="overflow:visible">
      <path
         inkscape:connector-curvature="0"
         id="path4353"
         d="M 0,0 5,-5 -12.5,0 5,5 0,0 z"
         style="fill-rule:evenodd;stroke:#000000;stroke-width:1pt"
         transform="matrix(-0.8,0,0,-0.8,-10,0)" />
    </marker>
    <marker
       inkscape:stockid="Arrow1Lend"
       orient="auto"
       refY="0"
       refX="0"
       id="Arrow1Lend-2"
       style="overflow:visible">
      <path
         inkscape:connector-curvature="0"
         id="path3844-775"
         d="M 0,0 5,-5 -12.5,0 5,5 0,0 z"
         style="fill-rule:evenodd;stroke:#000000;stroke-width:1pt"
         transform="matrix(-0.8,0,0,-0.8,-10,0)" />
    </marker>
    <marker
       inkscape:stockid="Arrow1Lend"
       orient="auto"
       refY="0"
       refX="0"
       id="marker4020"
       style="overflow:visible">
      <path
         inkscape:connector-curvature="0"
         id="path4022"
         d="M 0,0 5,-5 -12.5,0 5,5 0,0 z"
         style="fill-rule:evenodd;stroke:#000000;stroke-width:1pt"
         transform="matrix(-0.8,0,0,-0.8,-10,0)" />
    </marker>
    <marker
       inkscape:stockid="Arrow1Lend"
       orient="auto"
       refY="0"
       refX="0"
       id="marker4024"
       style="overflow:visible">
      <path
         inkscape:connector-curvature="0"
         id="path4026"
         d="M 0,0 5,-5 -12.5,0 5,5 0,0 z"
         style="fill-rule:evenodd;stroke:#000000;stroke-width:1pt"
         transform="matrix(-0.8,0,0,-0.8,-10,0)" />
    </marker>
    <marker
       inkscape:stockid="Arrow1Lend"
       orient="auto"
       refY="0"
       refX="0"
       id="Arrow1Lend-4"
       style="overflow:visible">
      <path
         inkscape:connector-curvature="0"
         id="path3844-6"
         d="M 0,0 5,-5 -12.5,0 5,5 0,0 z"
         style="fill-rule:evenodd;stroke:#000000;stroke-width:1pt"
         transform="matrix(-0.8,0,0,-0.8,-10,0)" />
    </marker>
    <marker
       inkscape:stockid="Arrow1Lend"
       orient="auto"
       refY="0"
       refX="0"
       id="Arrow1Lend-86"
       style="overflow:visible">
      <path
         inkscape:connector-curvature="0"
         id="path3844-0"
         d="M 0,0 5,-5 -12.5,0 5,5 0,0 z"
         style="fill-rule:evenodd;stroke:#000000;stroke-width:1pt"
         transform="matrix(-0.8,0,0,-0.8,-10,0)" />
    </marker>
    <marker
       inkscape:stockid="Arrow1Lend"
       orient="auto"
       refY="0"
       refX="0"
       id="Arrow1Lend-59"
       style="overflow:visible">
      <path
         inkscape:connector-curvature="0"
         id="path3844-2"
         d="M 0,0 5,-5 -12.5,0 5,5 0,0 z"
         style="fill-rule:evenodd;stroke:#000000;stroke-width:1pt"
         transform="matrix(-0.8,0,0,-0.8,-10,0)" />
    </marker>
    <marker
       inkscape:stockid="Arrow1Lend"
       orient="auto"
       refY="0"
       refX="0"
       id="Arrow1Lend-0"
       style="overflow:visible">
      <path
         inkscape:connector-curvature="0"
         id="path3844-95"
         d="M 0,0 5,-5 -12.5,0 5,5 0,0 z"
         style="fill-rule:evenodd;stroke:#000000;stroke-width:1pt"
         transform="matrix(-0.8,0,0,-0.8,-10,0)" />
    </marker>
    <marker
       inkscape:stockid="Arrow1Lend"
       orient="auto"
       refY="0"
       refX="0"
       id="Arrow1Lend-66"
       style="overflow:visible">
      <path
         inkscape:connector-curvature="0"
         id="path3844-1"
         d="M 0,0 5,-5 -12.5,0 5,5 0,0 z"
         style="fill-rule:evenodd;stroke:#000000;stroke-width:1pt"
         transform="matrix(-0.8,0,0,-0.8,-10,0)" />
    </marker>
    <marker
       inkscape:stockid="Arrow1Lend"
       orient="auto"
       refY="0"
       refX="0"
       id="Arrow1Lend-02"
       style="overflow:visible">
      <path
         inkscape:connector-curvature="0"
         id="path3844-28"
         d="M 0,0 5,-5 -12.5,0 5,5 0,0 z"
         style="fill-rule:evenodd;stroke:#000000;stroke-width:1pt"
         transform="matrix(-0.8,0,0,-0.8,-10,0)" />
    </marker>
    <marker
       inkscape:stockid="Arrow1Lend"
       orient="auto"
       refY="0"
       refX="0"
       id="Arrow1Lend-023"
       style="overflow:visible">
      <path
         inkscape:connector-curvature="0"
         id="path3844-75"
         d="M 0,0 5,-5 -12.5,0 5,5 0,0 z"
         style="fill-rule:evenodd;stroke:#000000;stroke-width:1pt"
         transform="matrix(-0.8,0,0,-0.8,-10,0)" />
    </marker>
    <marker
       inkscape:stockid="Arrow1Lend"
       orient="auto"
       refY="0"
       refX="0"
       id="Arrow1Lend-3"
       style="overflow:visible">
      <path
         inkscape:connector-curvature="0"
         id="path3844-3"
         d="M 0,0 5,-5 -12.5,0 5,5 0,0 z"
         style="fill-rule:evenodd;stroke:#000000;stroke-width:1pt"
         transform="matrix(-0.8,0,0,-0.8,-10,0)" />
    </marker>
    <marker
       inkscape:stockid="Arrow1Lend"
       orient="auto"
       refY="0"
       refX="0"
       id="Arrow1Lend-31"
       style="overflow:visible">
      <path
         inkscape:connector-curvature="0"
         id="path3844-4"
         d="M 0,0 5,-5 -12.5,0 5,5 0,0 z"
         style="fill-rule:evenodd;stroke:#000000;stroke-width:1pt"
         transform="matrix(-0.8,0,0,-0.8,-10,0)" />
    </marker>
    <marker
       inkscape:stockid="Arrow1Lend"
       orient="auto"
       refY="0"
       refX="0"
       id="Arrow1Lend-62"
       style="overflow:visible">
      <path
         inkscape:connector-curvature="0"
         id="path3844-60"
         d="M 0,0 5,-5 -12.5,0 5,5 0,0 z"
         style="fill-rule:evenodd;stroke:#000000;stroke-width:1pt"
         transform="matrix(-0.8,0,0,-0.8,-10,0)" />
    </marker>
    <marker
       inkscape:stockid="Arrow1Lend"
       orient="auto"
       refY="0"
       refX="0"
       id="Arrow1Lend-7"
       style="overflow:visible">
      <path
         inkscape:connector-curvature="0"
         id="path3844-25"
         d="M 0,0 5,-5 -12.5,0 5,5 0,0 z"
         style="fill-rule:evenodd;stroke:#000000;stroke-width:1pt"
         transform="matrix(-0.8,0,0,-0.8,-10,0)" />
    </marker>
    <marker
       inkscape:stockid="Arrow1Lend"
       orient="auto"
       refY="0"
       refX="0"
       id="Arrow1Lend-81"
       style="overflow:visible">
      <path
         inkscape:connector-curvature="0"
         id="path3844-90"
         d="M 0,0 5,-5 -12.5,0 5,5 0,0 z"
         style="fill-rule:evenodd;stroke:#000000;stroke-width:1pt"
         transform="matrix(-0.8,0,0,-0.8,-10,0)" />
    </marker>
    <marker
       inkscape:stockid="Arrow1Lend"
       orient="auto"
       refY="0"
       refX="0"
       id="Arrow1Lend-44"
       style="overflow:visible">
      <path
         inkscape:connector-curvature="0"
         id="path3844-19"
         d="M 0,0 5,-5 -12.5,0 5,5 0,0 z"
         style="fill-rule:evenodd;stroke:#000000;stroke-width:1pt"
         transform="matrix(-0.8,0,0,-0.8,-10,0)" />
    </marker>
    <marker
       inkscape:stockid="Arrow1Lstart"
       orient="auto"
       refY="0"
       refX="0"
       id="Arrow1Lstart-4"
       style="overflow:visible">
      <path
         inkscape:connector-curvature="0"
         id="path4278-9"
         d="M 0,0 5,-5 -12.5,0 5,5 0,0 z"
         style="fill-rule:evenodd;stroke:#000000;stroke-width:1pt"
         transform="matrix(0.8,0,0,0.8,10,0)" />
    </marker>
    <marker
       inkscape:stockid="Arrow1Lend"
       orient="auto"
       refY="0"
       refX="0"
       id="Arrow1Lend-24"
       style="overflow:visible">
      <path
         id="path3844-24"
         d="M 0,0 5,-5 -12.5,0 5,5 0,0 z"
         style="fill-rule:evenodd;stroke:#000000;stroke-width:1pt"
         transform="matrix(-0.8,0,0,-0.8,-10,0)"
         inkscape:connector-curvature="0" />
    </marker>
    <marker
       inkscape:stockid="Arrow1Lstart"
       orient="auto"
       refY="0"
       refX="0"
       id="Arrow1Lstart-1"
       style="overflow:visible">
      <path
         inkscape:connector-curvature="0"
         id="path4278-8"
         d="M 0,0 5,-5 -12.5,0 5,5 0,0 z"
         style="fill-rule:evenodd;stroke:#000000;stroke-width:1pt"
         transform="matrix(0.8,0,0,0.8,10,0)" />
    </marker>
    <marker
       inkscape:stockid="Arrow1Lend"
       orient="auto"
       refY="0"
       refX="0"
       id="Arrow1Lend-65"
       style="overflow:visible">
      <path
         id="path3844-67"
         d="M 0,0 5,-5 -12.5,0 5,5 0,0 z"
         style="fill-rule:evenodd;stroke:#000000;stroke-width:1pt"
         transform="matrix(-0.8,0,0,-0.8,-10,0)"
         inkscape:connector-curvature="0" />
    </marker>
    <marker
       inkscape:stockid="Arrow1Lstart"
       orient="auto"
       refY="0"
       refX="0"
       id="Arrow1Lstart-6"
       style="overflow:visible">
      <path
         inkscape:connector-curvature="0"
         id="path4278-87"
         d="M 0,0 5,-5 -12.5,0 5,5 0,0 z"
         style="fill-rule:evenodd;stroke:#000000;stroke-width:1pt"
         transform="matrix(0.8,0,0,0.8,10,0)" />
    </marker>
    <marker
       inkscape:stockid="Arrow1Lend"
       orient="auto"
       refY="0"
       refX="0"
       id="Arrow1Lend-58"
       style="overflow:visible">
      <path
         id="path3844-951"
         d="M 0,0 5,-5 -12.5,0 5,5 0,0 z"
         style="fill-rule:evenodd;stroke:#000000;stroke-width:1pt"
         transform="matrix(-0.8,0,0,-0.8,-10,0)"
         inkscape:connector-curvature="0" />
    </marker>
    <marker
       inkscape:stockid="Arrow1Lstart"
       orient="auto"
       refY="0"
       refX="0"
       id="Arrow1Lstart-0"
       style="overflow:visible">
      <path
         inkscape:connector-curvature="0"
         id="path4278-4"
         d="M 0,0 5,-5 -12.5,0 5,5 0,0 z"
         style="fill-rule:evenodd;stroke:#000000;stroke-width:1pt"
         transform="matrix(0.8,0,0,0.8,10,0)" />
    </marker>
    <marker
       inkscape:stockid="Arrow1Lend"
       orient="auto"
       refY="0"
       refX="0"
       id="Arrow1Lend-36"
       style="overflow:visible">
      <path
         id="path3844-36"
         d="M 0,0 5,-5 -12.5,0 5,5 0,0 z"
         style="fill-rule:evenodd;stroke:#000000;stroke-width:1pt"
         transform="matrix(-0.8,0,0,-0.8,-10,0)"
         inkscape:connector-curvature="0" />
    </marker>
    <marker
       inkscape:stockid="Arrow1Lstart"
       orient="auto"
       refY="0"
       refX="0"
       id="Arrow1Lstart-8"
       style="overflow:visible">
      <path
         inkscape:connector-curvature="0"
         id="path4278-2"
         d="M 0,0 5,-5 -12.5,0 5,5 0,0 z"
         style="fill-rule:evenodd;stroke:#000000;stroke-width:1pt"
         transform="matrix(0.8,0,0,0.8,10,0)" />
    </marker>
    <marker
       inkscape:stockid="Arrow1Lend"
       orient="auto"
       refY="0"
       refX="0"
       id="Arrow1Lend-20"
       style="overflow:visible">
      <path
         id="path3844-64"
         d="M 0,0 5,-5 -12.5,0 5,5 0,0 z"
         style="fill-rule:evenodd;stroke:#000000;stroke-width:1pt"
         transform="matrix(-0.8,0,0,-0.8,-10,0)"
         inkscape:connector-curvature="0" />
    </marker>
    <marker
       inkscape:stockid="Arrow1Lstart"
       orient="auto"
       refY="0"
       refX="0"
       id="Arrow1Lstart-6-7"
       style="overflow:visible">
      <path
         inkscape:connector-curvature="0"
         id="path4278-87-6"
         d="M 0,0 5,-5 -12.5,0 5,5 0,0 z"
         style="fill-rule:evenodd;stroke:#000000;stroke-width:1pt"
         transform="matrix(0.8,0,0,0.8,10,0)" />
    </marker>
    <marker
       inkscape:stockid="Arrow1Lend"
       orient="auto"
       refY="0"
       refX="0"
       id="Arrow1Lend-56"
       style="overflow:visible">
      <path
         id="path3844-13"
         d="M 0,0 5,-5 -12.5,0 5,5 0,0 z"
         style="fill-rule:evenodd;stroke:#000000;stroke-width:1pt"
         transform="matrix(-0.8,0,0,-0.8,-10,0)"
         inkscape:connector-curvature="0" />
    </marker>
    <marker
       inkscape:stockid="Arrow1Lstart"
       orient="auto"
       refY="0"
       refX="0"
       id="Arrow1Lstart-6-4"
       style="overflow:visible">
      <path
         inkscape:connector-curvature="0"
         id="path4278-87-9"
         d="M 0,0 5,-5 -12.5,0 5,5 0,0 z"
         style="fill-rule:evenodd;stroke:#000000;stroke-width:1pt"
         transform="matrix(0.8,0,0,0.8,10,0)" />
    </marker>
    <marker
       inkscape:stockid="Arrow1Lend"
       orient="auto"
       refY="0"
       refX="0"
       id="Arrow1Lend-43"
       style="overflow:visible">
      <path
         id="path3844-74"
         d="M 0,0 5,-5 -12.5,0 5,5 0,0 z"
         style="fill-rule:evenodd;stroke:#000000;stroke-width:1pt"
         transform="matrix(-0.8,0,0,-0.8,-10,0)"
         inkscape:connector-curvature="0" />
    </marker>
  </defs>
  <sodipodi:namedview
     id="base"
     pagecolor="#ffffff"
     bordercolor="#666666"
     borderopacity="1.0"
     inkscape:pageopacity="0.0"
     inkscape:pageshadow="2"
     inkscape:zoom="0.70710678"
     inkscape:cx="149.66005"
     inkscape:cy="24.780669"
     inkscape:document-units="px"
     inkscape:current-layer="capa1"
     showgrid="false"
     inkscape:snap-midpoints="true"
     inkscape:window-width="1313"
     inkscape:window-height="744"
     inkscape:window-x="1333"
     inkscape:window-y="24"
     inkscape:window-maximized="1"
     showguides="true"
     inkscape:guide-bbox="true"
     units="cm"
     fit-margin-top="0"
     fit-margin-left="0"
     fit-margin-right="0"
     fit-margin-bottom="0" />
  <metadata
     id="metadata7">
    <rdf:RDF>
      <cc:Work
         rdf:about="">
        <dc:format>image/svg+xml</dc:format>
        <dc:type
           rdf:resource="http://purl.org/dc/dcmitype/StillImage" />
        <dc:title />
      </cc:Work>
    </rdf:RDF>
  </metadata>
  <g
     inkscape:label="Capa 1"
     inkscape:groupmode="layer"
     id="capa1"
     transform="translate(-42.59375,-49.375)">
    <path
       sodipodi:type="arc"
       style="fill:#000000;fill-opacity:1;stroke:#ffffff;stroke-opacity:1"
       id="path3795-66"
       sodipodi:cx="180"
       sodipodi:cy="185.21933"
       sodipodi:rx="12.857142"
       sodipodi:ry="12.857142"
       d="m 192.85714,185.21933 c 0,7.1008 -5.75634,12.85714 -12.85714,12.85714 -7.1008,0 -12.85714,-5.75634 -12.85714,-12.85714 0,-7.1008 5.75634,-12.85714 12.85714,-12.85714 7.1008,0 12.85714,5.75634 12.85714,12.85714 z"
       transform="matrix(0.45094532,0,0,0.45094532,-10.857079,118.98127)" />
    <path
       sodipodi:type="arc"
       style="fill:#000000;fill-opacity:1;stroke:#ffffff;stroke-opacity:1"
       id="path3795-2-7"
       sodipodi:cx="180"
       sodipodi:cy="185.21933"
       sodipodi:rx="12.857142"
       sodipodi:ry="12.857142"
       d="m 192.85714,185.21933 c 0,7.1008 -5.75634,12.85714 -12.85714,12.85714 -7.1008,0 -12.85714,-5.75634 -12.85714,-12.85714 0,-7.1008 5.75634,-12.85714 12.85714,-12.85714 7.1008,0 12.85714,5.75634 12.85714,12.85714 z"
       transform="matrix(0.45094532,0,0,0.45094532,66.662569,118.98127)" />
    <path
       sodipodi:type="arc"
       style="fill:#000000;fill-opacity:1;stroke:#ffffff;stroke-opacity:1"
       id="path3795-7-4"
       sodipodi:cx="180"
       sodipodi:cy="185.21933"
       sodipodi:rx="12.857142"
       sodipodi:ry="12.857142"
       d="m 192.85714,185.21933 c 0,7.1008 -5.75634,12.85714 -12.85714,12.85714 -7.1008,0 -12.85714,-5.75634 -12.85714,-12.85714 0,-7.1008 5.75634,-12.85714 12.85714,-12.85714 7.1008,0 12.85714,5.75634 12.85714,12.85714 z"
       transform="matrix(0.45094532,0,0,0.45094532,144.18219,118.98127)" />
    <path
       sodipodi:type="arc"
       style="fill:#000000;fill-opacity:1;stroke:#ffffff;stroke-opacity:1"
       id="path3795-6-7"
       sodipodi:cx="180"
       sodipodi:cy="185.21933"
       sodipodi:rx="12.857142"
       sodipodi:ry="12.857142"
       d="m 192.85714,185.21933 c 0,7.1008 -5.75634,12.85714 -12.85714,12.85714 -7.1008,0 -12.85714,-5.75634 -12.85714,-12.85714 0,-7.1008 5.75634,-12.85714 12.85714,-12.85714 7.1008,0 12.85714,5.75634 12.85714,12.85714 z"
       transform="matrix(0.45094532,0,0,0.45094532,221.70186,118.98127)" />
    <path
       style="fill:none;stroke:#000000;stroke-width:0.90189064;stroke-linecap:butt;stroke-linejoin:miter;stroke-miterlimit:4;stroke-opacity:1;stroke-dasharray:2.70567193, 0.90189064;stroke-dashoffset:0"
       d="m 70.313084,214.74501 c 0,66.35338 -0.644207,66.99759 -0.644207,66.99759"
       id="path3024-7"
       inkscape:connector-curvature="0" />
    <path
       style="fill:none;stroke:#000000;stroke-width:0.90189064;stroke-linecap:butt;stroke-linejoin:miter;stroke-miterlimit:4;stroke-opacity:1;stroke-dasharray:2.70567193, 0.90189064;stroke-dashoffset:0"
       d="m 148.45546,214.22964 c 0,66.35338 -0.64421,66.99759 -0.64421,66.99759"
       id="path3024-5-0"
       inkscape:connector-curvature="0" />
    <path
       style="fill:none;stroke:#000000;stroke-width:0.90189064;stroke-linecap:butt;stroke-linejoin:miter;stroke-miterlimit:4;stroke-opacity:1;stroke-dasharray:2.70567193, 0.90189064;stroke-dashoffset:0"
       d="m 225.78915,214.95842 c 0,66.35339 -0.64421,66.99759 -0.64421,66.99759"
       id="path3024-5-9-97"
       inkscape:connector-curvature="0" />
    <path
       style="fill:none;stroke:#000000;stroke-width:0.90189064;stroke-linecap:butt;stroke-linejoin:miter;stroke-miterlimit:4;stroke-opacity:1;stroke-dasharray:2.70567193, 0.90189064;stroke-dashoffset:0"
       d="m 302.36565,215.85871 c 0,66.35338 -0.64421,66.99759 -0.64421,66.99759"
       id="path3024-5-9-9-8"
       inkscape:connector-curvature="0" />
    <rect
       style="fill:#ffffff;fill-opacity:1;stroke:#000000;stroke-width:0.57756704;stroke-linejoin:round;stroke-miterlimit:4;stroke-opacity:1;stroke-dasharray:none;stroke-dashoffset:0"
       id="rect3902-7-3-2-4-9"
       width="52.918522"
       height="25.186523"
       x="42.887508"
       y="284.83578"
       ry="9.4965582" />
    <text
       xml:space="preserve"
       style="font-size:14.43025017px;font-style:normal;font-weight:normal;line-height:125%;letter-spacing:0px;word-spacing:0px;fill:#000000;fill-opacity:1;stroke:none;font-family:Sans"
       x="59.115086"
       y="300.51361"
       id="text3904-5"
       sodipodi:linespacing="125%"><tspan
         sodipodi:role="line"
         id="tspan3906-89"
         x="59.115086"
         y="300.51361"
         style="font-size:10.8226881px">this</tspan></text>
    <rect
       style="fill:#ffffff;fill-opacity:1;stroke:#000000;stroke-width:0.57756704;stroke-linejoin:round;stroke-miterlimit:4;stroke-opacity:1;stroke-dasharray:none;stroke-dashoffset:0"
       id="rect3902-7-3-2-5"
       width="52.918522"
       height="25.186523"
       x="121.12652"
       y="284.61032"
       ry="9.4965582" />
    <text
       xml:space="preserve"
       style="font-size:14.43025017px;font-style:normal;font-weight:normal;line-height:125%;letter-spacing:0px;word-spacing:0px;fill:#000000;fill-opacity:1;stroke:none;font-family:Sans"
       x="143.01115"
       y="300.51361"
       id="text3904-0-4"
       sodipodi:linespacing="125%"><tspan
         sodipodi:role="line"
         id="tspan3906-9-1"
         x="143.01115"
         y="300.51361"
         style="font-size:10.8226881px">is</tspan></text>
    <rect
       style="fill:#ffffff;fill-opacity:1;stroke:#000000;stroke-width:0.57756704;stroke-linejoin:round;stroke-miterlimit:4;stroke-opacity:1;stroke-dasharray:none;stroke-dashoffset:0"
       id="rect3902-7-3-1"
       width="52.918522"
       height="25.186523"
       x="198.23816"
       y="285.73767"
       ry="9.4965582" />
    <text
       xml:space="preserve"
       style="font-size:14.43025017px;font-style:normal;font-weight:normal;line-height:125%;letter-spacing:0px;word-spacing:0px;fill:#000000;fill-opacity:1;stroke:none;font-family:Sans"
       x="216.96619"
       y="300.33481"
       id="text3904-8-6"
       sodipodi:linespacing="125%"><tspan
         sodipodi:role="line"
         id="tspan3906-8-1"
         x="216.96619"
         y="300.33481"
         style="font-size:10.8226881px">an</tspan></text>
    <rect
       style="fill:#ffffff;fill-opacity:1;stroke:#000000;stroke-width:0.57756704;stroke-linejoin:round;stroke-miterlimit:4;stroke-opacity:1;stroke-dasharray:none;stroke-dashoffset:0"
       id="rect3902-7-8"
       width="52.918522"
       height="25.186523"
       x="275.12433"
       y="284.78751"
       ry="9.4965582" />
    <text
       xml:space="preserve"
       style="font-size:14.43025017px;font-style:normal;font-weight:normal;line-height:125%;letter-spacing:0px;word-spacing:0px;fill:#000000;fill-opacity:1;stroke:none;font-family:Sans"
       x="278.29474"
       y="300.36652"
       id="text3904-08-4"
       sodipodi:linespacing="125%"><tspan
         sodipodi:role="line"
         id="tspan3906-0-7"
         x="278.29474"
         y="300.36652"
         style="font-size:10.8226881px">example</tspan></text>
    <path
       sodipodi:type="arc"
       style="fill:#000000;fill-opacity:1;stroke:#ffffff;stroke-opacity:1"
       id="path3795-2-7-4"
       sodipodi:cx="180"
       sodipodi:cy="185.21933"
       sodipodi:rx="12.857142"
       sodipodi:ry="12.857142"
       d="m 192.85714,185.21933 c 0,7.1008 -5.75634,12.85714 -12.85714,12.85714 -7.1008,0 -12.85714,-5.75634 -12.85714,-12.85714 0,-7.1008 5.75634,-12.85714 12.85714,-12.85714 7.1008,0 12.85714,5.75634 12.85714,12.85714 z"
       transform="matrix(0.45094532,0,0,0.45094532,70.023184,8.8851409)" />
    <path
       sodipodi:type="arc"
       style="fill:#000000;fill-opacity:1;stroke:#ffffff;stroke-opacity:1"
       id="path3795-2-7-4-1"
       sodipodi:cx="180"
       sodipodi:cy="185.21933"
       sodipodi:rx="12.857142"
       sodipodi:ry="12.857142"
       d="m 192.85714,185.21933 c 0,7.1008 -5.75634,12.85714 -12.85714,12.85714 -7.1008,0 -12.85714,-5.75634 -12.85714,-12.85714 0,-7.1008 5.75634,-12.85714 12.85714,-12.85714 7.1008,0 12.85714,5.75634 12.85714,12.85714 z"
       transform="matrix(0.45094532,0,0,0.45094532,125.03851,41.353201)" />
    <path
       sodipodi:type="arc"
       style="fill:#000000;fill-opacity:1;stroke:#ffffff;stroke-opacity:1"
       id="path3795-2-7-4-4"
       sodipodi:cx="180"
       sodipodi:cy="185.21933"
       sodipodi:rx="12.857142"
       sodipodi:ry="12.857142"
       d="m 192.85714,185.21933 c 0,7.1008 -5.75634,12.85714 -12.85714,12.85714 -7.1008,0 -12.85714,-5.75634 -12.85714,-12.85714 0,-7.1008 5.75634,-12.85714 12.85714,-12.85714 7.1008,0 12.85714,5.75634 12.85714,12.85714 z"
       transform="matrix(0.45094532,0,0,0.45094532,168.32926,72.017481)" />
    <path
       style="fill:none;stroke:#000000;stroke-width:0.45094532px;stroke-linecap:butt;stroke-linejoin:miter;stroke-opacity:1"
       d="M 282.86937,170.87342"
       id="path4203"
       inkscape:connector-curvature="0" />
    <path
       style="fill:none;stroke:#000000;stroke-width:0.45100001;stroke-linecap:butt;stroke-linejoin:miter;stroke-miterlimit:4;stroke-opacity:1;stroke-dasharray:none;marker-start:url(#Arrow1Lstart-6);marker-end:url(#Arrow1Lend)"
       d="m 295.67211,197.16392 -40.7185,-34.25111"
       id="path3835-5-5-1"
       inkscape:connector-curvature="0"
       sodipodi:nodetypes="cc" />
    <path
       style="fill:none;stroke:#000000;stroke-width:0.45100001;stroke-linecap:butt;stroke-linejoin:miter;stroke-miterlimit:4;stroke-opacity:1;stroke-dasharray:none;marker-start:url(#Arrow1Lstart);marker-end:url(#Arrow1Lend)"
       d="M 144.12024,101.79408 74.799834,189.04231"
       id="path3835-5-5-6-5-7-3"
       inkscape:connector-curvature="0"
       sodipodi:nodetypes="cc" />
    <text
       xml:space="preserve"
       style="font-size:18.03781319px;font-style:normal;font-weight:normal;text-align:center;line-height:125%;letter-spacing:0px;word-spacing:0px;text-anchor:middle;fill:#000000;fill-opacity:1;stroke:none;font-family:Sans"
       x="92.925186"
       y="131.72684"
       id="text2985-0-6"
       sodipodi:linespacing="125%"><tspan
         sodipodi:role="line"
         x="92.925186"
         y="131.72684"
         style="font-size:10.8226881px;font-style:normal;text-align:center;text-anchor:middle;-inkscape-font-specification:Sans"
         id="tspan4707">Syntax</tspan></text>
    <rect
       style="fill:#ffffff;fill-opacity:1;stroke:#000000;stroke-width:0.57756704;stroke-linejoin:round;stroke-miterlimit:4;stroke-opacity:1;stroke-dasharray:none;stroke-dashoffset:0"
       id="rect3902-7-3-2-4-4"
       width="52.918522"
       height="25.186523"
       x="177.22105"
       y="49.651394"
       ry="9.4965582" />
    <text
       xml:space="preserve"
       style="font-size:14.43025017px;font-style:normal;font-weight:normal;line-height:125%;letter-spacing:0px;word-spacing:0px;fill:#000000;fill-opacity:1;stroke:none;font-family:Sans"
       x="199.76186"
       y="65.329193"
       id="text3904-84"
       sodipodi:linespacing="125%"><tspan
         sodipodi:role="line"
         id="tspan3906-97"
         x="199.76186"
         y="65.329193"
         style="font-size:10.8226881px">S</tspan></text>
    <rect
       style="fill:#ffffff;fill-opacity:1;stroke:#000000;stroke-width:0.57756704;stroke-linejoin:round;stroke-miterlimit:4;stroke-opacity:1;stroke-dasharray:none;stroke-dashoffset:0"
       id="rect3902-7-3-2-4-4-6"
       width="52.918522"
       height="25.186523"
       x="258.2139"
       y="87.030792"
       ry="9.4965582" />
    <text
       xml:space="preserve"
       style="font-size:14.43025017px;font-style:normal;font-weight:normal;line-height:125%;letter-spacing:0px;word-spacing:0px;fill:#000000;fill-opacity:1;stroke:none;font-family:Sans"
       x="280.75473"
       y="102.70862"
       id="text3904-84-5"
       sodipodi:linespacing="125%"><tspan
         sodipodi:role="line"
         id="tspan3906-97-9"
         x="280.75473"
         y="102.70862"
         style="font-size:10.8226881px">VP</tspan></text>
    <rect
       style="fill:#ffffff;fill-opacity:1;stroke:#000000;stroke-width:0.57756704;stroke-linejoin:round;stroke-miterlimit:4;stroke-opacity:1;stroke-dasharray:none;stroke-dashoffset:0"
       id="rect3902-7-3-2-4-4-64"
       width="52.918522"
       height="25.186523"
       x="290.68195"
       y="123.10645"
       ry="9.4965582" />
    <text
       xml:space="preserve"
       style="font-size:14.43025017px;font-style:normal;font-weight:normal;line-height:125%;letter-spacing:0px;word-spacing:0px;fill:#000000;fill-opacity:1;stroke:none;font-family:Sans"
       x="313.22278"
       y="138.78424"
       id="text3904-84-1"
       sodipodi:linespacing="125%"><tspan
         sodipodi:role="line"
         id="tspan3906-97-3"
         x="313.22278"
         y="138.78424"
         style="font-size:10.8226881px">NP</tspan></text>
    <path
       style="fill:none;stroke:#000000;stroke-width:0.57650453;stroke-linecap:butt;stroke-linejoin:miter;stroke-miterlimit:4;stroke-opacity:1;stroke-dasharray:1.72951365, 0.57650455;stroke-dashoffset:0"
       d="m 172.94093,65.343211 -20.9736,19.57836"
       id="path5494"
       inkscape:connector-curvature="0"
       sodipodi:nodetypes="cc" />
    <path
       style="fill:none;stroke:#000000;stroke-width:0.45094532;stroke-linecap:butt;stroke-linejoin:miter;stroke-miterlimit:4;stroke-opacity:1;stroke-dasharray:1.35283597, 0.45094532;stroke-dashoffset:0"
       d="m 253.39059,102.66581 -41.93985,12.88124"
       id="path5494-5"
       inkscape:connector-curvature="0"
       sodipodi:nodetypes="cc" />
    <path
       style="fill:none;stroke:#000000;stroke-width:0.45094532;stroke-linecap:butt;stroke-linejoin:miter;stroke-miterlimit:4;stroke-opacity:1;stroke-dasharray:1.35283597, 0.45094532;stroke-dashoffset:0"
       d="M 286.02696,134.89588 258.9683,148.67901"
       id="path5494-5-2"
       inkscape:connector-curvature="0"
       sodipodi:nodetypes="cc" />
    <text
       xml:space="preserve"
       style="font-size:18.03781319px;font-style:normal;font-weight:normal;text-align:center;line-height:125%;letter-spacing:0px;word-spacing:0px;text-anchor:middle;fill:#000000;fill-opacity:1;stroke:none;font-family:Sans"
       x="377.64722"
       y="246.14706"
       id="text2985-0-6-9-0"
       sodipodi:linespacing="125%"><tspan
         sodipodi:role="line"
         x="377.64722"
         y="246.14706"
         style="font-size:10.8226881px;font-style:italic;text-align:center;text-anchor:middle;-inkscape-font-specification:Sans Italic"
         id="tspan4707-0-5">Word</tspan></text>
    <path
       style="fill:none;stroke:#000000;stroke-width:0.90189064;stroke-linecap:butt;stroke-linejoin:miter;stroke-miterlimit:4;stroke-opacity:1;stroke-dasharray:2.70567193, 0.90189064;stroke-dashoffset:0"
       d="M 101.42082,251.71419 75.776621,281.71178"
       id="path3024-7-0"
       inkscape:connector-curvature="0"
       sodipodi:nodetypes="cc" />
    <path
       sodipodi:type="arc"
       style="fill:#8b8b8b;fill-opacity:1;stroke:#000000;stroke-opacity:1"
       id="path3795-66-1"
       sodipodi:cx="180"
       sodipodi:cy="185.21933"
       sodipodi:rx="12.857142"
       sodipodi:ry="12.857142"
       d="m 192.85714,185.21933 c 0,7.1008 -5.75634,12.85714 -12.85714,12.85714 -7.1008,0 -12.85714,-5.75634 -12.85714,-12.85714 0,-7.1008 5.75634,-12.85714 12.85714,-12.85714 7.1008,0 12.85714,5.75634 12.85714,12.85714 z"
       transform="matrix(0.45094532,0,0,0.45094532,29.428566,159.6892)" />
    <path
       style="fill:none;stroke:#000000;stroke-width:0.90189064;stroke-linecap:butt;stroke-linejoin:miter;stroke-miterlimit:4;stroke-opacity:1;stroke-dasharray:2.70567193, 0.90189064;stroke-dashoffset:0"
       d="m 181.54567,252.75099 -25.6442,29.99759"
       id="path3024-7-0-7"
       inkscape:connector-curvature="0"
       sodipodi:nodetypes="cc" />
    <path
       sodipodi:type="arc"
       style="fill:#8b8b8b;fill-opacity:1;stroke:#000000;stroke-opacity:1"
       id="path3795-66-1-2"
       sodipodi:cx="180"
       sodipodi:cy="185.21933"
       sodipodi:rx="12.857142"
       sodipodi:ry="12.857142"
       d="m 192.85714,185.21933 c 0,7.1008 -5.75634,12.85714 -12.85714,12.85714 -7.1008,0 -12.85714,-5.75634 -12.85714,-12.85714 0,-7.1008 5.75634,-12.85714 12.85714,-12.85714 7.1008,0 12.85714,5.75634 12.85714,12.85714 z"
       transform="matrix(0.45094532,0,0,0.45094532,109.55342,160.726)" />
    <path
       style="fill:none;stroke:#000000;stroke-width:0.90189064;stroke-linecap:butt;stroke-linejoin:miter;stroke-miterlimit:4;stroke-opacity:1;stroke-dasharray:2.70567193, 0.90189064;stroke-dashoffset:0"
       d="m 256.54567,253.75099 -25.6442,29.99759"
       id="path3024-7-0-1"
       inkscape:connector-curvature="0"
       sodipodi:nodetypes="cc" />
    <path
       sodipodi:type="arc"
       style="fill:#8b8b8b;fill-opacity:1;stroke:#000000;stroke-opacity:1"
       id="path3795-66-1-4"
       sodipodi:cx="180"
       sodipodi:cy="185.21933"
       sodipodi:rx="12.857142"
       sodipodi:ry="12.857142"
       d="m 192.85714,185.21933 c 0,7.1008 -5.75634,12.85714 -12.85714,12.85714 -7.1008,0 -12.85714,-5.75634 -12.85714,-12.85714 0,-7.1008 5.75634,-12.85714 12.85714,-12.85714 7.1008,0 12.85714,5.75634 12.85714,12.85714 z"
       transform="matrix(0.45094532,0,0,0.45094532,184.55342,161.726)" />
    <path
       style="fill:none;stroke:#000000;stroke-width:0.90189064;stroke-linecap:butt;stroke-linejoin:miter;stroke-miterlimit:4;stroke-opacity:1;stroke-dasharray:2.70567193, 0.90189064;stroke-dashoffset:0"
       d="m 332.54567,252.75099 -25.6442,29.99759"
       id="path3024-7-0-3"
       inkscape:connector-curvature="0"
       sodipodi:nodetypes="cc" />
    <path
       sodipodi:type="arc"
       style="fill:#8b8b8b;fill-opacity:1;stroke:#000000;stroke-opacity:1"
       id="path3795-66-1-22"
       sodipodi:cx="180"
       sodipodi:cy="185.21933"
       sodipodi:rx="12.857142"
       sodipodi:ry="12.857142"
       d="m 192.85714,185.21933 c 0,7.1008 -5.75634,12.85714 -12.85714,12.85714 -7.1008,0 -12.85714,-5.75634 -12.85714,-12.85714 0,-7.1008 5.75634,-12.85714 12.85714,-12.85714 7.1008,0 12.85714,5.75634 12.85714,12.85714 z"
       transform="matrix(0.45094532,0,0,0.45094532,260.55342,160.726)" />
    <path
       style="fill:none;stroke:#000000;stroke-width:0.45100001;stroke-linecap:butt;stroke-linejoin:miter;stroke-miterlimit:4;stroke-opacity:1;stroke-dasharray:none;marker-start:url(#Arrow1Lstart);marker-end:url(#Arrow1Lend)"
       d="m 177.75893,244.08887 -55.32041,0.74823"
       id="path3835-5-5-6-5-7-3-9"
       inkscape:connector-curvature="0"
       sodipodi:nodetypes="cc" />
    <path
       style="fill:none;stroke:#000000;stroke-width:0.45100001;stroke-linecap:butt;stroke-linejoin:miter;stroke-miterlimit:4;stroke-opacity:1;stroke-dasharray:none;marker-start:url(#Arrow1Lstart);marker-end:url(#Arrow1Lend)"
       d="m 250.25893,244.33887 -55.32041,0.74823"
       id="path3835-5-5-6-5-7-3-9-3"
       inkscape:connector-curvature="0"
       sodipodi:nodetypes="cc" />
    <path
       style="fill:none;stroke:#000000;stroke-width:0.45100001;stroke-linecap:butt;stroke-linejoin:miter;stroke-miterlimit:4;stroke-opacity:1;stroke-dasharray:none;marker-start:url(#Arrow1Lstart);marker-end:url(#Arrow1Lend)"
       d="m 333.75893,245.33887 -55.32041,0.74823"
       id="path3835-5-5-6-5-7-3-9-6"
       inkscape:connector-curvature="0"
       sodipodi:nodetypes="cc" />
    <path
       style="fill:none;stroke:#000000;stroke-width:0.45100001;stroke-linecap:butt;stroke-linejoin:miter;stroke-miterlimit:4;stroke-opacity:1;stroke-dasharray:none;marker-start:url(#Arrow1Lstart);marker-end:url(#Arrow1Lend)"
       d="M 198.25893,135.08887 154.43852,193.3371"
       id="path3835-5-5-6-5-7-3-1"
       inkscape:connector-curvature="0"
       sodipodi:nodetypes="cc" />
    <path
       style="fill:none;stroke:#000000;stroke-width:0.45100001;stroke-linecap:butt;stroke-linejoin:miter;stroke-miterlimit:4;stroke-opacity:1;stroke-dasharray:none;marker-start:url(#Arrow1Lstart);marker-end:url(#Arrow1Lend)"
       d="M 243.25893,165.08887 229.43852,194.3371"
       id="path3835-5-5-6-5-7-3-7"
       inkscape:connector-curvature="0"
       sodipodi:nodetypes="cc" />
    <path
       style="fill:none;stroke:#000000;stroke-width:0.45100001;stroke-linecap:butt;stroke-linejoin:miter;stroke-miterlimit:4;stroke-opacity:1;stroke-dasharray:none;marker-start:url(#Arrow1Lstart-6);marker-end:url(#Arrow1Lend)"
       d="M 197.95797,122.33854 160.23947,98.087431"
       id="path3835-5-5-1-3"
       inkscape:connector-curvature="0"
       sodipodi:nodetypes="cc" />
    <path
       style="fill:none;stroke:#000000;stroke-width:0.45100001;stroke-linecap:butt;stroke-linejoin:miter;stroke-miterlimit:4;stroke-opacity:1;stroke-dasharray:none;marker-start:url(#Arrow1Lstart-6);marker-end:url(#Arrow1Lend)"
       d="m 242.45797,150.83854 -27.2185,-20.25111"
       id="path3835-5-5-1-2"
       inkscape:connector-curvature="0"
       sodipodi:nodetypes="cc" />
    <text
       xml:space="preserve"
       style="font-size:32px;font-style:normal;font-weight:normal;line-height:125%;letter-spacing:0px;word-spacing:0px;fill:#000000;fill-opacity:1;stroke:none;font-family:Sans"
       x="245.76279"
       y="144.7872"
       id="text5233"
       sodipodi:linespacing="125%"><tspan
         sodipodi:role="line"
         id="tspan5235"
         x="245.76279"
         y="144.7872"
         style="font-size:16px;stroke:none">8</tspan></text>
    <rect
       style="fill:#000000;fill-opacity:0;stroke:#000000;stroke-opacity:1"
       id="rect5237"
       width="12.5"
       height="19.5"
       x="244.59872"
       y="129.21298"
       ry="0" />
    <text
       xml:space="preserve"
       style="font-size:32px;font-style:normal;font-weight:normal;line-height:125%;letter-spacing:0px;word-spacing:0px;fill:#000000;fill-opacity:1;stroke:none;font-family:Sans"
       x="106.79059"
       y="327.82898"
       id="text5233-4"
       sodipodi:linespacing="125%"><tspan
         sodipodi:role="line"
         id="tspan5235-7"
         x="106.79059"
         y="327.82898"
         style="font-size:16px;stroke:none">1</tspan></text>
    <rect
       style="fill:#000000;fill-opacity:0;stroke:#000000;stroke-opacity:1"
       id="rect5237-1"
       width="12.5"
       height="19.5"
       x="105.62652"
       y="312.25476"
       ry="0" />
    <text
       xml:space="preserve"
       style="font-size:32px;font-style:normal;font-weight:normal;line-height:125%;letter-spacing:0px;word-spacing:0px;fill:#000000;fill-opacity:1;stroke:none;font-family:Sans"
       x="180.09859"
       y="327.82898"
       id="text5233-4-6"
       sodipodi:linespacing="125%"><tspan
         sodipodi:role="line"
         id="tspan5235-7-1"
         x="180.09859"
         y="327.82898"
         style="font-size:16px;stroke:none">2</tspan></text>
    <rect
       style="fill:#000000;fill-opacity:0;stroke:#000000;stroke-opacity:1"
       id="rect5237-1-6"
       width="12.5"
       height="19.5"
       x="178.93451"
       y="312.25476"
       ry="0" />
    <text
       xml:space="preserve"
       style="font-size:32px;font-style:normal;font-weight:normal;line-height:125%;letter-spacing:0px;word-spacing:0px;fill:#000000;fill-opacity:1;stroke:none;font-family:Sans"
       x="265.2088"
       y="327.82898"
       id="text5233-4-3"
       sodipodi:linespacing="125%"><tspan
         sodipodi:role="line"
         id="tspan5235-7-6"
         x="265.2088"
         y="327.82898"
         style="font-size:16px;stroke:none">3</tspan></text>
    <rect
       style="fill:#000000;fill-opacity:0;stroke:#000000;stroke-opacity:1"
       id="rect5237-1-2"
       width="12.5"
       height="19.5"
       x="264.04474"
       y="312.25476"
       ry="0" />
    <text
       xml:space="preserve"
       style="font-size:32px;font-style:normal;font-weight:normal;line-height:125%;letter-spacing:0px;word-spacing:0px;fill:#000000;fill-opacity:1;stroke:none;font-family:Sans"
       x="199.80859"
       y="235.35858"
       id="text5233-4-4"
       sodipodi:linespacing="125%"><tspan
         sodipodi:role="line"
         id="tspan5235-7-4"
         x="199.80859"
         y="235.35858"
         style="font-size:16px;stroke:none">4</tspan></text>
    <rect
       style="fill:#000000;fill-opacity:0;stroke:#000000;stroke-opacity:1"
       id="rect5237-1-68"
       width="12.5"
       height="19.5"
       x="198.64453"
       y="219.78436"
       ry="0" />
    <text
       xml:space="preserve"
       style="font-size:32px;font-style:normal;font-weight:normal;line-height:125%;letter-spacing:0px;word-spacing:0px;fill:#000000;fill-opacity:1;stroke:none;font-family:Sans"
       x="259.68158"
       y="231.4695"
       id="text5233-4-6-7"
       sodipodi:linespacing="125%"><tspan
         sodipodi:role="line"
         id="tspan5235-7-1-2"
         x="259.68158"
         y="231.4695"
         style="font-size:16px;stroke:none">5</tspan></text>
    <rect
       style="fill:#000000;fill-opacity:0;stroke:#000000;stroke-opacity:1"
       id="rect5237-1-6-3"
       width="12.5"
       height="19.5"
       x="258.51749"
       y="215.89528"
       ry="0" />
    <text
       xml:space="preserve"
       style="font-size:32px;font-style:normal;font-weight:normal;line-height:125%;letter-spacing:0px;word-spacing:0px;fill:#000000;fill-opacity:1;stroke:none;font-family:Sans"
       x="337.7207"
       y="229.70172"
       id="text5233-4-3-4"
       sodipodi:linespacing="125%"><tspan
         sodipodi:role="line"
         id="tspan5235-7-6-1"
         x="337.7207"
         y="229.70172"
         style="font-size:16px;stroke:none">6</tspan></text>
    <rect
       style="fill:#000000;fill-opacity:0;stroke:#000000;stroke-opacity:1"
       id="rect5237-1-2-9"
       width="12.5"
       height="19.5"
       x="336.55664"
       y="214.1275"
       ry="0" />
    <text
       xml:space="preserve"
       style="font-size:32px;font-style:normal;font-weight:normal;line-height:125%;letter-spacing:0px;word-spacing:0px;fill:#000000;fill-opacity:1;stroke:none;font-family:Sans"
       x="204.03644"
       y="201.42525"
       id="text5233-1"
       sodipodi:linespacing="125%"><tspan
         sodipodi:role="line"
         id="tspan5235-70"
         x="204.03644"
         y="201.42525"
         style="font-size:16px;stroke:none">7</tspan></text>
    <rect
       style="fill:#000000;fill-opacity:0;stroke:#000000;stroke-opacity:1"
       id="rect5237-7"
       width="12.5"
       height="19.5"
       x="202.87238"
       y="185.85103"
       ry="0" />
    <text
       xml:space="preserve"
       style="font-size:32px;font-style:normal;font-weight:normal;line-height:125%;letter-spacing:0px;word-spacing:0px;fill:#000000;fill-opacity:1;stroke:none;font-family:Sans"
       x="284.29303"
       y="214.50671"
       id="text5233-3"
       sodipodi:linespacing="125%"><tspan
         sodipodi:role="line"
         id="tspan5235-6"
         x="284.29303"
         y="214.50671"
         style="font-size:16px;stroke:none">9</tspan></text>
    <rect
       style="fill:#000000;fill-opacity:0;stroke:#000000;stroke-opacity:1"
       id="rect5237-6"
       width="12.5"
       height="19.5"
       x="283.12897"
       y="198.9325"
       ry="0" />
  </g>
</svg>
