<?xml version="1.0" encoding="UTF-8" standalone="no"?>
<!-- Created with Inkscape (http://www.inkscape.org/) -->

<svg
   xmlns:dc="http://purl.org/dc/elements/1.1/"
   xmlns:cc="http://creativecommons.org/ns#"
   xmlns:rdf="http://www.w3.org/1999/02/22-rdf-syntax-ns#"
   xmlns:svg="http://www.w3.org/2000/svg"
   xmlns="http://www.w3.org/2000/svg"
   xmlns:sodipodi="http://sodipodi.sourceforge.net/DTD/sodipodi-0.dtd"
   xmlns:inkscape="http://www.inkscape.org/namespaces/inkscape"
   width="733"
   height="337"
   id="svg2"
   version="1.1"
   inkscape:version="0.48.4 r9939"
   sodipodi:docname="Nou document 1">
  <defs
     id="defs4">
    <marker
       inkscape:stockid="Arrow1Lend"
       orient="auto"
       refY="0"
       refX="0"
       id="Arrow1Lend"
       style="overflow:visible">
      <path
         id="path3888"
         d="M 0,0 5,-5 -12.5,0 5,5 0,0 z"
         style="fill-rule:evenodd;stroke:#000000;stroke-width:1pt"
         transform="matrix(-0.8,0,0,-0.8,-10,0)"
         inkscape:connector-curvature="0" />
    </marker>
    <marker
       inkscape:stockid="Arrow1Lend"
       orient="auto"
       refY="0"
       refX="0"
       id="Arrow1Lend-7"
       style="overflow:visible">
      <path
         inkscape:connector-curvature="0"
         id="path3888-8"
         d="M 0,0 5,-5 -12.5,0 5,5 0,0 z"
         style="fill-rule:evenodd;stroke:#000000;stroke-width:1pt"
         transform="matrix(-0.8,0,0,-0.8,-10,0)" />
    </marker>
    <marker
       inkscape:stockid="Arrow1Lend"
       orient="auto"
       refY="0"
       refX="0"
       id="Arrow1Lend-6"
       style="overflow:visible">
      <path
         inkscape:connector-curvature="0"
         id="path3888-0"
         d="M 0,0 5,-5 -12.5,0 5,5 0,0 z"
         style="fill-rule:evenodd;stroke:#000000;stroke-width:1pt"
         transform="matrix(-0.8,0,0,-0.8,-10,0)" />
    </marker>
    <marker
       inkscape:stockid="Arrow1Lend"
       orient="auto"
       refY="0"
       refX="0"
       id="Arrow1Lend-63"
       style="overflow:visible">
      <path
         inkscape:connector-curvature="0"
         id="path3888-4"
         d="M 0,0 5,-5 -12.5,0 5,5 0,0 z"
         style="fill-rule:evenodd;stroke:#000000;stroke-width:1pt"
         transform="matrix(-0.8,0,0,-0.8,-10,0)" />
    </marker>
    <marker
       inkscape:stockid="Arrow1Lend"
       orient="auto"
       refY="0"
       refX="0"
       id="Arrow1Lend-69"
       style="overflow:visible">
      <path
         inkscape:connector-curvature="0"
         id="path3888-05"
         d="M 0,0 5,-5 -12.5,0 5,5 0,0 z"
         style="fill-rule:evenodd;stroke:#000000;stroke-width:1pt"
         transform="matrix(-0.8,0,0,-0.8,-10,0)" />
    </marker>
  </defs>
  <sodipodi:namedview
     id="base"
     pagecolor="#ffffff"
     bordercolor="#666666"
     borderopacity="1.0"
     inkscape:pageopacity="0.0"
     inkscape:pageshadow="2"
     inkscape:zoom="0.7"
     inkscape:cx="274.14232"
     inkscape:cy="195.65326"
     inkscape:document-units="px"
     inkscape:current-layer="capa1"
     showgrid="false"
     fit-margin-top="0"
     fit-margin-left="0"
     fit-margin-right="0"
     fit-margin-bottom="0"
     inkscape:window-width="1313"
     inkscape:window-height="744"
     inkscape:window-x="1333"
     inkscape:window-y="24"
     inkscape:window-maximized="1" />
  <metadata
     id="metadata7">
    <rdf:RDF>
      <cc:Work
         rdf:about="">
        <dc:format>image/svg+xml</dc:format>
        <dc:type
           rdf:resource="http://purl.org/dc/dcmitype/StillImage" />
        <dc:title></dc:title>
      </cc:Work>
    </rdf:RDF>
  </metadata>
  <g
     inkscape:label="Capa 1"
     inkscape:groupmode="layer"
     id="capa1"
     transform="translate(-109.92857,-45.290752)">
    <path
       style="fill:none;stroke:#000000;stroke-width:1px;stroke-linecap:butt;stroke-linejoin:miter;stroke-opacity:1"
       d="m 125.71429,173.79075 c 0.95238,0.47619 1.90476,0.95238 2.85714,1.42857 0.47619,0 0.97682,-0.15058 1.42857,0 2.64794,0.88265 -0.87068,0.71429 1.42858,0.71429 0.23809,0 0.47619,0 0.71428,0 0.2381,0 0.60781,-0.21296 0.71429,0 0.2074,0.4148 -0.21053,3.86466 0,4.28571 1.48634,2.97269 -0.0493,-0.76359 1.42857,0.71429 0.16836,0.16836 -0.16836,0.54593 0,0.71429 0.23809,0 0.47619,0 0.71428,0 0.2381,0 0.54593,-0.16836 0.71429,0 0.16836,0.16835 -0.16836,0.54592 0,0.71428 0.14603,0.14603 1.85965,-0.1416 2.14286,0 0.30117,0.15059 0.41311,0.5637 0.71428,0.71429 0.49338,0.24669 3.3207,-0.25073 3.57143,0 0.16836,0.16836 -0.16836,0.54592 0,0.71428 0.33672,0.33672 0.97682,-0.15058 1.42857,0 0.50508,0.16836 0.98559,0.41897 1.42857,0.71429 0.30276,0.20184 1.99509,1.84732 2.14286,2.14286 0.10648,0.21295 -0.16836,0.54592 0,0.71428 0.16836,0.16836 0.54593,-0.16836 0.71429,0 0.16836,0.16836 -0.10648,0.50133 0,0.71429 0.15058,0.30117 0.47619,0.47619 0.71428,0.71428 0.2381,0.2381 0.41312,0.5637 0.71429,0.71429 0.21738,0.10869 1.82117,0 2.14286,0 0.17323,0 2.11988,0.023 2.14285,0 0.16836,-0.16836 -0.16836,-0.54593 0,-0.71429 0.16836,-0.16836 0.54593,0.16836 0.71429,0 0.16836,-0.16836 -0.16836,-0.54592 0,-0.71428 0.16836,-0.16836 0.54593,0.16836 0.71428,0 0.16836,-0.16836 -0.16835,-0.54593 0,-0.71429 0.16836,-0.16836 0.54593,0.16836 0.71429,0 0.33672,-0.33672 -0.33672,-1.09185 0,-1.42857 0.16836,-0.16836 0.54593,0.16836 0.71429,0 0.35714,-0.35714 -0.35715,-1.78571 0,-2.14286 0.16835,-0.16836 0.54592,0.16836 0.71428,0 0.35714,-0.35714 -0.35714,-1.78571 0,-2.14285 0.16836,-0.16836 0.54593,0.16835 0.71429,0 0.33671,-0.33672 -0.33672,-1.09186 0,-1.42858 0.16836,-0.16835 0.54592,0.16836 0.71428,0 0.16836,-0.16835 -0.10648,-0.50132 0,-0.71428 0.15059,-0.30117 0.5637,-0.41312 0.71429,-0.71429 0.10648,-0.21296 -0.16836,-0.54592 0,-0.71428 0.16836,-0.16836 0.54593,0.16836 0.71428,0 0.16836,-0.16836 -0.16835,-0.54593 0,-0.71429 0.16836,-0.16836 0.54593,0.16836 0.71429,0 0.16836,-0.16836 -0.16836,-0.54593 0,-0.71428 0.16836,-0.16836 0.54593,0.16835 0.71429,0 0.16835,-0.16836 -0.10648,-0.50133 0,-0.71429 0.15058,-0.30117 0.5637,-0.41312 0.71428,-0.71429 0.10648,-0.21295 -0.16836,-0.54592 0,-0.71428 0.16836,-0.16836 0.54593,0.16836 0.71429,0 0.33671,-0.33672 -0.33672,-1.09186 0,-1.42857 0.16836,-0.16836 0.54592,0.16836 0.71428,0 0.16836,-0.16836 -0.16836,-0.54593 0,-0.71429 0.16836,-0.16836 0.54593,0.16836 0.71429,0 0.19544,-0.19544 -0.19375,-2.46965 0,-2.85714 0.15058,-0.30117 0.5637,-0.41312 0.71428,-0.71429 0.21296,-0.42591 -0.33671,-1.09185 0,-1.42857 0.16836,-0.16836 0.54593,0.16836 0.71429,0 0.33672,-0.33672 -0.33672,-1.09185 0,-1.42857 0.16836,-0.16836 0.54593,0.16836 0.71429,0 0.16835,-0.16836 -0.10648,-0.50133 0,-0.71429 0.15058,-0.30116 0.5637,-0.41311 0.71428,-0.71428 0.10648,-0.21296 -0.16836,-0.54593 0,-0.71429 0.16836,-0.16836 0.54593,0.16836 0.71429,0 0.16836,-0.16836 -0.16836,-0.54592 0,-0.71428 0.16836,-0.16836 0.54592,0.16836 0.71428,0 0.16836,-0.16836 -0.16836,-0.54593 0,-0.71429 0.16836,-0.16836 0.47619,0 0.71429,0 0.23809,0 0.47619,0 0.71428,0 1.42858,0 2.85715,0 4.28572,0 0.23809,0 0.47619,0 0.71428,0 0.2381,0 0.50133,-0.10648 0.71429,0 0.30117,0.15059 0.41312,0.5637 0.71429,0.71429 0.2832,0.1416 1.99683,-0.14603 2.14285,0 0.16836,0.16836 -0.16836,0.54592 0,0.71428 0.33672,0.33672 1.09186,-0.33671 1.42857,0 0.16836,0.16836 0,0.47619 0,0.71429 0.2381,0 0.54593,-0.16836 0.71429,0 0.16836,0.16836 -0.16836,0.54593 0,0.71428 0.33672,0.33672 1.09185,-0.33671 1.42857,0 0.16836,0.16836 -0.10648,0.50133 0,0.71429 0.42857,0.85714 1.71429,1.28571 2.14286,2.14286 0.10648,0.21296 -0.16836,0.54592 0,0.71428 0.16836,0.16836 0.54593,-0.16836 0.71428,0 0.33672,0.33672 -0.33671,1.09186 0,1.42857 0.16836,0.16836 0.54593,-0.16835 0.71429,0 0.16836,0.16836 -0.10648,0.50133 0,0.71429 0.30117,0.60234 1.1274,0.82623 1.42857,1.42857 0.10648,0.21296 -0.16836,0.54593 0,0.71429 0.16836,0.16836 0.54593,-0.16836 0.71429,0 0.16836,0.16836 -0.10648,0.50132 0,0.71428 0.15058,0.30117 0.5637,0.41312 0.71428,0.71429 0.21296,0.42592 -0.33671,1.09185 0,1.42857 0.16836,0.16836 0.54593,-0.16836 0.71429,0 0.16836,0.16836 -0.16836,0.54593 0,0.71429 0.16836,0.16835 0.54593,-0.16836 0.71428,0 0.16836,0.16835 -0.16835,0.54592 0,0.71428 0.16836,0.16836 0.47619,0 0.71429,0 0,0.2381 -0.10648,0.50133 0,0.71429 0.15058,0.30117 0.47619,0.47619 0.71429,0.71428 0.23809,0.2381 0.41311,0.5637 0.71428,0.71429 0.21296,0.10648 0.54593,-0.16836 0.71429,0 0.16836,0.16836 -0.16836,0.54593 0,0.71428 0.33671,0.33672 1.09185,-0.33671 1.42857,0 0.16836,0.16836 -0.16836,0.54593 0,0.71429 0.16836,0.16836 0.54593,-0.16836 0.71428,0 0.16836,0.16836 -0.16835,0.54593 0,0.71429 0.16836,0.16835 0.82077,0.21295 0.71429,0 -0.30117,-0.60234 -1.1274,-0.82624 -1.42857,-1.42858 -0.10648,-0.21295 0.48841,-0.0753 0.71428,0 4.43365,1.47789 -2.37394,-0.0578 3.57143,1.42858 0.23099,0.0577 0.54593,-0.16836 0.71429,0 0.16836,0.16835 -0.16836,0.54592 0,0.71428 0.33672,0.33672 1.09185,-0.33672 1.42857,0 0.16836,0.16836 -0.16836,0.54593 0,0.71429 0.16836,0.16836 0.50133,-0.10648 0.71429,0 0.30117,0.15058 0.41311,0.5637 0.71428,0.71428 0.21296,0.10648 0.54593,-0.16836 0.71429,0 0.16836,0.16836 -0.16836,0.54593 0,0.71429 0.16836,0.16836 0.54592,-0.16836 0.71428,0 0.16836,0.16836 -0.16836,0.54593 0,0.71428 0.16836,0.16836 0.54593,-0.16835 0.71429,0 0.16836,0.16836 -0.16836,0.54593 0,0.71429 0.16836,0.16836 0.50133,-0.10648 0.71428,0 0.30117,0.15058 0.41312,0.5637 0.71429,0.71429 0.21296,0.10648 0.54593,-0.16836 0.71429,0 0.16835,0.16835 -0.16836,0.54592 0,0.71428 0.33671,0.33672 1.09185,-0.33672 1.42857,0 0.16836,0.16836 -0.16836,0.54593 0,0.71429 0.33671,0.33671 1.00265,-0.21296 1.42857,0 0.30117,0.15058 0.41312,0.5637 0.71428,0.71428 0.21739,0.10869 1.82118,0 2.14286,0 1.42857,0 2.85714,0 4.28572,0 0.28236,0 3.26636,0.15253 3.57142,0 0.30117,-0.15058 0.41312,-0.5637 0.71429,-0.71428 0.44894,-0.22447 2.4082,0.22447 2.85714,0 0.30117,-0.15059 0.41312,-0.5637 0.71429,-0.71429 0.57143,-0.28571 1.57143,0.28572 2.14286,0 0.30117,-0.15058 0.41311,-0.5637 0.71428,-0.71428 0.21296,-0.10648 0.47619,0 0.71429,0 1.19047,0 2.38095,0 3.57143,0 0.23809,0 0.47619,0 0.71428,0 0.2381,0 0.50133,0.10648 0.71429,0 0.30117,-0.15059 0.41311,-0.56371 0.71428,-0.71429 0.42592,-0.21296 1.09186,0.33672 1.42857,0 0.16836,-0.16836 -0.16835,-0.54593 0,-0.71429 0.16836,-0.16835 0.54593,0.16836 0.71429,0 0.16836,-0.16835 -0.16836,-0.54592 0,-0.71428 0.16836,-0.16836 0.54593,0.16836 0.71429,0 0.16835,-0.16836 -0.16836,-0.54593 0,-0.71429 0.16835,-0.16836 0.54592,0.16836 0.71428,0 0.16836,-0.16836 -0.16836,-0.54592 0,-0.71428 0.16836,-0.16836 0.47619,0 0.71429,0 0.23809,0 0.47619,0 0.71428,0 3.80953,0 7.61905,0 11.42857,0 0.17324,0 2.11989,0.023 2.14286,0 0.16836,-0.16836 -0.16836,-0.54593 0,-0.71429 0.16836,-0.16836 0.54593,0.16836 0.71429,0 0.16836,-0.16836 -0.16836,-0.54593 0,-0.71428 0.16836,-0.16836 0.54592,0.16835 0.71428,0 0.16836,-0.16836 -0.16836,-0.54593 0,-0.71429 0.16836,-0.16836 0.54593,0.16836 0.71429,0 0.16836,-0.16836 -0.10648,-0.50133 0,-0.71429 0.15058,-0.30116 0.5637,-0.41311 0.71428,-0.71428 0.10648,-0.21296 -0.16835,-0.54593 0,-0.71429 0.16836,-0.16836 0.50133,0.10648 0.71429,0 0.30117,-0.15058 0.41312,-0.5637 0.71429,-0.71428 0.21295,-0.10648 0.54592,0.16836 0.71428,0 0.16836,-0.16836 -0.16836,-0.54593 0,-0.71429 0.16836,-0.16836 0.54593,0.16836 0.71429,0 0.16836,-0.16836 -0.21296,-0.6078 0,-0.71428 0.42592,-0.21296 1.00265,0.21295 1.42857,0 0.21296,-0.10648 -0.16836,-0.54593 0,-0.71429 0.16836,-0.16836 0.50133,0.10648 0.71428,0 2.97269,-1.48634 -0.76359,0.0493 0.71429,-1.42857 0.16836,-0.16836 0.54593,0.16836 0.71429,0 0.16835,-0.16836 -0.16836,-0.54593 0,-0.71429 0.16835,-0.16836 0.54592,0.16836 0.71428,0 0.16836,-0.16836 -0.16836,-0.54592 0,-0.71428 0.16836,-0.16836 0.54593,0.16836 0.71429,0 0.16836,-0.16836 -0.16836,-0.54593 0,-0.71429 0.16836,-0.16836 0.54592,0.16836 0.71428,0 0.16836,-0.16836 -0.10648,-0.50133 0,-0.71428 0.15059,-0.30117 0.5637,-0.41312 0.71429,-0.71429 0.10648,-0.21296 -0.16836,-0.54593 0,-0.71429 0.16836,-0.16835 0.54593,0.16836 0.71428,0 0.16836,-0.16835 -0.16835,-0.54592 0,-0.71428 0.16836,-0.16836 0.54593,0.16836 0.71429,0 0.33672,-0.33672 -0.33672,-1.09186 0,-1.42857 0.16836,-0.16836 0.54593,0.16836 0.71429,0 0.16835,-0.16836 -0.16836,-0.54593 0,-0.71429 0.16835,-0.16836 0.54592,0.16836 0.71428,0 0.16836,-0.16836 -0.16836,-0.54593 0,-0.71428 0.16836,-0.16836 0.54593,0.16835 0.71429,0 0.16836,-0.16836 -0.10648,-0.50133 0,-0.71429 0.15058,-0.30117 0.5637,-0.41312 0.71428,-0.71429 0.10648,-0.21295 -0.16836,-0.54592 0,-0.71428 0.16836,-0.16836 0.54593,0.16836 0.71429,0 0.33672,-0.33672 -0.33672,-1.09186 0,-1.42857 0.16836,-0.16836 0.54593,0.16836 0.71428,0 0.16836,-0.16836 0,-0.47619 0,-0.71429 0.2381,0 0.54593,0.16836 0.71429,0 0.16836,-0.16836 -0.16836,-0.54593 0,-0.71428 0.16836,-0.16836 0.50133,0.10648 0.71429,0 0.30117,-0.15059 0.41311,-0.56371 0.71428,-0.71429 0.98526,-0.49263 0.63891,0.86504 1.42857,-0.71429 0.10648,-0.21295 -0.10648,-0.50132 0,-0.71428 0.15059,-0.30117 0.5637,-0.41312 0.71429,-0.71429 0.10648,-0.21296 -0.10648,-0.50132 0,-0.71428 0.15058,-0.30117 0.5637,-0.41312 0.71428,-0.71429 0.10648,-0.21296 -0.10647,-0.50133 0,-0.71428 0.15059,-0.30117 0.56371,-0.41312 0.71429,-0.71429 0.21296,-0.42592 -0.33672,-1.09185 0,-1.42857 0.16836,-0.16836 0.54593,0.16836 0.71429,0 0.33671,-0.33672 -0.21296,-1.00265 0,-1.42857 0.15058,-0.30117 0.5637,-0.41312 0.71428,-0.71429 0.21296,-0.42592 -0.33672,-1.09185 0,-1.42857 0.16836,-0.16836 0.54593,0.16836 0.71429,0 0.47702,-0.47702 -0.47702,-0.95155 0,-1.42857 0.16836,-0.16836 0.54592,0.16836 0.71428,0 0.16836,-0.16836 -0.16836,-0.54593 0,-0.71429 0.16836,-0.16836 0.54593,0.16836 0.71429,0 0.16836,-0.16836 -0.10648,-0.50132 0,-0.71428 0.15058,-0.30117 0.5637,-0.41312 0.71428,-0.71429 0.21296,-0.42592 -0.33671,-1.09185 0,-1.42857 0.16836,-0.16836 0.54593,0.16836 0.71429,0 0,-1.90476 -0.23809,0.2381 0.71429,-0.71429 0.16835,-0.16835 -0.16836,-0.54592 0,-0.71428 0.16835,-0.16836 0.54592,0.16836 0.71428,0 0.33672,-0.33672 -0.33672,-1.09186 0,-1.42857 0.16836,-0.16836 0.54593,0.16836 0.71429,0 0.16836,-0.16836 -0.16836,-0.54593 0,-0.71429 0.16836,-0.16836 0.54592,0.16836 0.71428,0 0.16836,-0.16836 0,-0.47619 0,-0.71428 0.2381,0 0.54593,0.16835 0.71429,0 0.16836,-0.16836 -0.16836,-0.54593 0,-0.71429 0.16836,-0.16836 0.50133,0.10648 0.71428,0 0.30117,-0.15058 0.41312,-0.5637 0.71429,-0.71429 0.21296,-0.10647 0.54593,0.16836 0.71429,0 0.16835,-0.16835 -0.16836,-0.54592 0,-0.71428 0.16835,-0.16836 0.54592,0.16836 0.71428,0 0.16836,-0.16836 0,-0.47619 0,-0.71429 0.2381,0 0.50133,0.10648 0.71429,0 0.30117,-0.15058 0.41311,-0.5637 0.71428,-0.71428 0.21296,-0.10648 0.50133,0.10648 0.71429,0 0.30117,-0.15059 0.41312,-0.5637 0.71428,-0.71429 0.3875,-0.19374 2.6617,0.19545 2.85715,0 0.16836,-0.16836 -0.16836,-0.54593 0,-0.71428 0.16836,-0.16836 0.47619,0 0.71428,0 0.49682,0 3.31312,0.12915 3.57143,0 0.30117,-0.15059 0.41312,-0.56371 0.71429,-0.71429 0.25831,-0.12915 3.07461,0 3.57143,0 0.23809,0 0.54592,-0.16836 0.71428,0 0.16836,0.16836 -0.16836,0.54593 0,0.71429 0.16836,0.16835 0.50133,-0.10648 0.71429,0 0.30117,0.15058 0.41311,0.5637 0.71428,0.71428 0.21296,0.10648 0.50133,-0.10648 0.71429,0 0.60234,0.30117 0.82623,1.1274 1.42857,1.42857 0.21296,0.10648 0.50133,-0.10648 0.71429,0 0.60233,0.30117 0.82623,1.12741 1.42857,1.42857 0.98525,0.49263 0.63891,-0.86503 1.42857,0.71429 0.10648,0.21296 -0.16836,0.54593 0,0.71429 0.16836,0.16835 0.54593,-0.16836 0.71428,0 0.16836,0.16835 -0.16835,0.54592 0,0.71428 0.16836,0.16836 0.54593,-0.16836 0.71429,0 0.16836,0.16836 0,0.47619 0,0.71429 0,1.90476 0,3.80952 0,5.71428 0,0.2381 0,0.47619 0,0.71429 0,0.23809 -0.16836,0.54593 0,0.71428 0.16836,0.16836 0.54593,-0.16835 0.71429,0 0.16835,0.16836 -0.16836,0.54593 0,0.71429 0.16835,0.16836 0.54592,-0.16836 0.71428,0 0.33672,0.33672 -0.21296,1.00265 0,1.42857 2.36899,2.36899 -0.33672,-0.67343 0.71429,1.42857 0.15058,0.30117 0.5637,0.41312 0.71428,0.71429 0.10648,0.21296 -0.10648,0.50133 0,0.71428 0.15059,0.30117 0.5637,0.41312 0.71429,0.71429 0.21296,0.42592 -0.21296,1.00265 0,1.42857 0.15058,0.30117 0.5637,0.41312 0.71428,0.71429 0.10648,0.21296 0,0.47619 0,0.71428 0,0.2381 0,0.47619 0,0.71429 0,1.19048 0,2.38095 0,3.57143 0,0.23809 -0.10647,0.50132 0,0.71428 0.15059,0.30117 0.56371,0.41312 0.71429,0.71429 0.10648,0.21296 -0.10648,0.50133 0,0.71428 0.15058,0.30117 0.5637,0.41312 0.71429,0.71429 0.10648,0.21296 -0.10648,0.50133 0,0.71429 0.15058,0.30117 0.5637,0.41311 0.71428,0.71428 0.28572,0.57143 -0.28571,1.57143 0,2.14286 0.15059,0.30117 0.5637,0.41312 0.71429,0.71428 0.10648,0.21296 0,0.4762 0,0.71429 0.23809,0.2381 0.5637,0.41312 0.71428,0.71429 0.21296,0.42591 -0.33671,1.09185 0,1.42857 0.16836,0.16836 0.54593,-0.16836 0.71429,0 0.16836,0.16836 -0.16836,0.54592 0,0.71428 0.16836,0.16836 0.54593,-0.16836 0.71428,0 0.16836,0.16836 -0.16835,0.54593 0,0.71429 0.16836,0.16836 0.54593,-0.16836 0.71429,0 1.47788,1.47788 -2.2584,-0.0578 0.71429,1.42857 0.21295,0.10648 0.54592,-0.16836 0.71428,0 0.16836,0.16836 -0.16836,0.54593 0,0.71429 0.16836,0.16835 0.50133,-0.10648 0.71429,0 0.85714,0.42857 1.28571,1.71428 2.14285,2.14285 0.44895,0.22448 2.4082,-0.22447 2.85715,0 0.30117,0.15059 0.47619,0.47619 0.71428,0.71429 5.64098,1.88032 2.77987,1.42857 8.57143,1.42857 0.95238,0 1.92326,-0.18678 2.85714,0 0.33018,0.066 0.41312,0.5637 0.71429,0.71429 0.21296,0.10648 0.47619,0 0.71429,0 0.23809,0 0.47619,0 0.71428,0 0.47619,0 0.95238,0 1.42857,0 0.2381,0 0.71429,-0.2381 0.71429,0 0,0.23809 -0.95238,0 -0.71429,0 0.47619,0 0.97682,0.15058 1.42857,0 0.31944,-0.10648 0.41312,-0.56371 0.71429,-0.71429 0.21296,-0.10648 0.54593,0.16836 0.71429,0 0.16835,-0.16836 -0.16836,-0.54593 0,-0.71429 0.95238,-0.95238 0.71428,1.19048 0.71428,-0.71428 0,-0.47619 0,-1.90476 0,-1.42857 0,0.47619 -0.47619,1.42857 0,1.42857 1.9669,0 0.20172,-1.63029 0.71429,-2.14286 0.16836,-0.16836 0.54592,0.16836 0.71428,0 0.33672,-0.33672 -0.33671,-1.09185 0,-1.42857 0.33672,-0.33672 1.00266,0.21296 1.42857,0 0.30117,-0.15058 0.41312,-0.5637 0.71429,-0.71429 0.21296,-0.10647 0.50133,0.10648 0.71429,0 0.30117,-0.15058 0.41311,-0.5637 0.71428,-0.71428 0.43373,-0.21687 3.85199,0.21686 4.28572,0 0.30117,-0.15059 0.41311,-0.5637 0.71428,-0.71429 0.45062,-0.22531 3.12081,0.22531 3.57143,0 0.30117,-0.15058 0.37757,-0.71428 0.71429,-0.71428 0.53239,0 0.92349,0.54592 1.42857,0.71428 0.22587,0.0753 0.47619,0 0.71428,0 0.2381,0 0.54593,0.16836 0.71429,0 0.47702,-0.47702 -0.47702,-0.95155 0,-1.42857 0.16836,-0.16836 0.54593,0.16836 0.71428,0 0.16836,-0.16836 -0.16835,-0.54593 0,-0.71428 0.16836,-0.16836 0.54593,0.16835 0.71429,0 0.16836,-0.16836 -0.16836,-0.54593 0,-0.71429 0.16836,-0.16836 0.54593,0.16836 0.71429,0 0.16835,-0.16836 -0.16836,-0.54593 0,-0.71429 0.16835,-0.16835 0.54592,0.16836 0.71428,0 0.16836,-0.16835 -0.16836,-0.54592 0,-0.71428 0.16836,-0.16836 0.50133,0.10648 0.71429,0 0.30117,-0.15059 0.38762,-0.63262 0.71428,-0.71429 2.25123,-0.5628 4.34661,0.90808 6.42857,1.42857 0.13325,0.0333 2.06113,0.0409 2.14286,0 0.30117,-0.15058 0.41312,-0.5637 0.71429,-0.71428 0.21296,-0.10648 0.50132,0.10648 0.71428,0 0.30117,-0.15059 0.41312,-0.5637 0.71429,-0.71429 0.25831,-0.12915 3.07461,0 3.57143,0 0.23809,0 0.54592,0.16836 0.71428,0 0.16836,-0.16836 -0.16836,-0.54592 0,-0.71428 0.33672,-0.33672 1.09186,0.33671 1.42857,0 0.16836,-0.16836 -0.16835,-0.54593 0,-0.71429 0.33672,-0.33672 1.09186,0.33672 1.42858,0 0.33671,-0.33672 -0.33672,-1.09185 0,-1.42857 0.16835,-0.16836 0.54592,0.16836 0.71428,0 0.16836,-0.16836 -0.16836,-0.54593 0,-0.71429 0.16836,-0.16835 0.54593,0.16836 0.71429,0 0.33672,-0.33671 -0.33672,-1.09185 0,-1.42857 0.16836,-0.16836 0.54592,0.16836 0.71428,0 0.16836,-0.16836 -0.16836,-0.54592 0,-0.71428 0.16836,-0.16836 0.54593,0.16836 0.71429,0 0.16836,-0.16836 -0.10648,-0.50133 0,-0.71429 0.15058,-0.30117 0.5637,-0.41311 0.71428,-0.71428 0.10648,-0.21296 -0.16835,-0.54593 0,-0.71429 0.16836,-0.16836 0.50133,0.10648 0.71429,0 0.60234,-0.30117 0.82623,-1.1274 1.42857,-1.42857 0.21296,-0.10648 0.50133,0.10648 0.71429,0 0.30117,-0.15059 0.41311,-0.5637 0.71428,-0.71429 0.21296,-0.10648 0.50133,0.10648 0.71429,0 0.30117,-0.15058 0.41312,-0.5637 0.71428,-0.71428 0.28321,-0.14161 1.99684,0.14602 2.14286,0 0.16836,-0.16836 -0.16836,-0.54593 0,-0.71429 0.14603,-0.14602 1.85965,0.14161 2.14286,0 0.30117,-0.15058 0.41312,-0.5637 0.71428,-0.71428 0.21296,-0.10648 0.50133,0.10648 0.71429,0 0.30117,-0.15059 0.41312,-0.56371 0.71429,-0.71429 0.42591,-0.21296 1.09185,0.33672 1.42857,0 0.16836,-0.16836 -0.16836,-0.54593 0,-0.71429 0.35714,-0.35714 1.78571,0.35715 2.14285,0 0.16836,-0.16835 -0.16835,-0.54592 0,-0.71428 0.33672,-0.33672 1.09186,0.33672 1.42858,0 0.16835,-0.16836 -0.16836,-0.54593 0,-0.71429 1.90476,0 -0.2381,0.2381 0.71428,-0.71428 0.16836,-0.16836 0.54593,0.16836 0.71429,0 0.16836,-0.16836 -0.16836,-0.54593 0,-0.71429 0.33672,-0.33672 1.09185,0.33672 1.42857,0 0.16836,-0.16836 -0.16836,-0.54593 0,-0.71428 0.35714,-0.35715 1.78571,0.35714 2.14286,0 0.16835,-0.16836 -0.16836,-0.54593 0,-0.71429 0.33671,-0.33672 1.09185,0.33672 1.42857,0 0.16836,-0.16836 -0.16836,-0.54593 0,-0.71429 0.33672,-0.33671 1.00265,0.21296 1.42857,0 0.60234,-0.30116 0.82623,-1.1274 1.42857,-1.42857 0.21296,-0.10648 0.54593,0.16836 0.71429,0 0.16835,-0.16836 0,-0.47619 0,-0.71428 0,-0.2381 0,-0.47619 0,-0.71429 0,-1.90476 -0.2381,0.2381 0.71428,-0.71428 0.17188,-0.17188 -0.17188,-2.68527 0,-2.85715 0.16836,-0.16836 0.50133,0.10648 0.71429,0 0.30117,-0.15058 0.41311,-0.5637 0.71428,-0.71428 0.21296,-0.10648 0.50133,0.10648 0.71429,0 0.30117,-0.15059 0.41312,-0.5637 0.71428,-0.71429 0.21296,-0.10648 0.54593,0.16836 0.71429,0 0.16836,-0.16836 -0.16836,-0.54593 0,-0.71428 0.16836,-0.16836 0.54593,0.16835 0.71429,0 0.16835,-0.16836 -0.16836,-0.54593 0,-0.71429 0.16835,-0.16836 0.54592,0.16836 0.71428,0 0.16836,-0.16836 -0.16836,-0.54593 0,-0.71429 0.16836,-0.16835 0.54593,0.16836 0.71429,0 0.16836,-0.16835 -0.16836,-0.54592 0,-0.71428 0.16836,-0.16836 0.54592,0.16836 0.71428,0 0.16836,-0.16836 -0.16836,-0.54593 0,-0.71429 0.16836,-0.16836 0.54593,0.16836 0.71429,0 0.16836,-0.16836 -0.16836,-0.54592 0,-0.71428 0.16836,-0.16836 0.54593,0.16836 0.71428,0 0.16836,-0.16836 -0.16835,-0.54593 0,-0.71429 0.16836,-0.16836 0.54593,0.16836 0.71429,0 0.16836,-0.16836 -0.16836,-0.54593 0,-0.71428 0.16836,-0.16836 0.54593,0.16835 0.71429,0 0.16835,-0.16836 -0.16836,-0.54593 0,-0.71429 0.33671,-0.33672 1.09185,0.33672 1.42857,0 0.16836,-0.16836 -0.16836,-0.54593 0,-0.71429 0.14602,-0.14602 1.85965,0.14161 2.14285,0 0.30117,-0.15058 0.41312,-0.5637 0.71429,-0.71428 0.42592,-0.21296 1.09185,0.33672 1.42857,0 0.16836,-0.16836 -0.16836,-0.54593 0,-0.71429 0.19545,-0.19544 2.46965,0.19375 2.85714,0 0.30117,-0.15058 0.41312,-0.5637 0.71429,-0.71428 0.0592,-0.0296 2.05095,-0.0306 2.14286,0 0.50507,0.16836 0.92349,0.54592 1.42857,0.71428 0.45175,0.15059 1.00265,-0.21296 1.42857,0 0.30117,0.15059 0.41312,0.5637 0.71429,0.71429 0.21296,0.10648 0.50132,-0.10648 0.71428,0 0.30117,0.15058 0.47619,0.47619 0.71429,0.71428 0.23809,0.2381 0.5637,0.41312 0.71428,0.71429 0.10648,0.21296 -0.10648,0.50133 0,0.71429 0.30117,0.60233 1.12741,0.82623 1.42857,1.42857 0.10648,0.21296 -0.16835,0.54592 0,0.71428 0.16836,0.16836 0.54593,-0.16836 0.71429,0 0.16836,0.16836 -0.10648,0.50133 0,0.71429 0.30117,0.60234 1.1274,0.82623 1.42857,1.42857 0.10648,0.21296 -0.16836,0.54593 0,0.71429 0.16836,0.16835 0.54593,-0.16836 0.71429,0 0.16836,0.16835 -0.16836,0.54592 0,0.71428 0.16836,0.16836 0.54592,-0.16836 0.71428,0 0.33672,0.33672 -0.33671,1.09186 0,1.42857 0.16836,0.16836 0.54593,-0.16836 0.71429,0 0.16836,0.16836 -0.16836,0.54593 0,0.71429 0.16836,0.16836 0.54593,-0.16836 0.71428,0 0.16836,0.16836 -0.16835,0.54593 0,0.71428 0.16836,0.16836 0.54593,-0.16835 0.71429,0 0.16836,0.16836 -0.10648,0.50133 0,0.71429 0.42857,0.85714 1.71429,1.28571 2.14286,2.14286 0.10648,0.21296 -0.10648,0.50132 0,0.71428 1.48634,2.97269 -0.0493,-0.76359 1.42857,0.71429 0.16836,0.16836 -0.16836,0.54593 0,0.71428 0.16836,0.16836 0.54593,-0.16835 0.71428,0 0.16836,0.16836 -0.16835,0.54593 0,0.71429 0.16836,0.16836 0.50133,-0.10648 0.71429,0 0.30117,0.15058 0.41312,0.5637 0.71429,0.71429 0.21296,0.10648 0.54592,-0.16836 0.71428,0 0.16836,0.16835 -0.16836,0.54592 0,0.71428 0.16836,0.16836 0.54593,-0.16836 0.71429,0 0.16836,0.16836 -0.16836,0.54593 0,0.71429 0.47761,0.47761 0.95096,-0.47761 1.42857,0 0.16836,0.16836 -0.16836,0.54592 0,0.71428 0.16836,0.16836 0.50133,-0.10648 0.71428,0 0.30117,0.15059 0.41312,0.5637 0.71429,0.71429 0.21296,0.10648 0.54593,-0.16836 0.71429,0 0.16835,0.16836 -0.16836,0.54593 0,0.71428 0.16835,0.16836 0.54592,-0.16835 0.71428,0 0.16836,0.16836 -0.16836,0.54593 0,0.71429 0.16836,0.16836 0.54593,-0.16836 0.71429,0 0.16836,0.16836 -0.16836,0.54593 0,0.71429 0.16836,0.16835 0.54592,-0.16836 0.71428,0 0.16836,0.16835 -0.16836,0.54592 0,0.71428 0.33672,0.33672 1.09186,-0.33672 1.42857,0 0.16836,0.16836 -0.16835,0.54593 0,0.71429 0.16836,0.16836 0.54593,-0.16836 0.71429,0 0.16836,0.16836 -0.16836,0.54592 0,0.71428 0.16836,0.16836 0.54593,-0.16836 0.71429,0 0.16835,0.16836 -0.16836,0.54593 0,0.71429 0.16835,0.16836 0.50132,-0.10648 0.71428,0 0.30117,0.15058 0.41312,0.5637 0.71429,0.71428 0.21296,0.10648 0.50132,-0.10647 0.71428,0 0.30117,0.15059 0.41312,0.56371 0.71429,0.71429 0.21296,0.10648 0.54593,-0.16836 0.71428,0 0.16836,0.16836 -0.16835,0.54593 0,0.71429 0.16836,0.16835 0.54593,-0.16836 0.71429,0 0.16836,0.16835 -0.16836,0.54592 0,0.71428 0.0324,0.0324 3.23464,0 3.57143,0 0.37351,0 2.66933,0.0939 2.85714,0 0.30117,-0.15058 0.41312,-0.5637 0.71429,-0.71428 0.28321,-0.14161 1.99683,0.14602 2.14285,0 0.16836,-0.16836 -0.16835,-0.54593 0,-0.71429 0.33672,-0.33672 1.09186,0.33672 1.42858,0 0.16835,-0.16836 -0.16836,-0.54593 0,-0.71429 0.16835,-0.16835 0.47619,0 0.71428,0 0.47619,0 1.00266,0.21296 1.42857,0 0.21296,-0.10647 -0.16836,-0.54592 0,-0.71428 0.16836,-0.16836 0.54593,0.16836 0.71429,0 0.16836,-0.16836 -0.16836,-0.54593 0,-0.71429 0.16836,-0.16836 0.54593,0.16836 0.71428,0 0.16836,-0.16836 -0.16835,-0.54592 0,-0.71428 0.16836,-0.16836 0.50133,0.10648 0.71429,0 2.97269,-1.48635 -0.7636,0.0493 0.71429,-1.42857 0.16835,-0.16836 0.54592,0.16835 0.71428,0 0.16836,-0.16836 -0.16836,-0.54593 0,-0.71429 0.16836,-0.16836 0.54593,0.16836 0.71429,0 0.33672,-0.33672 -0.33672,-1.09185 0,-1.42857 0.16836,-0.16836 0.54592,0.16836 0.71428,0 0.16836,-0.16836 -0.16836,-0.54593 0,-0.71429 0.16836,-0.16836 0.54593,0.16836 0.71429,0 0.16836,-0.16836 -0.16836,-0.54592 0,-0.71428 0.16836,-0.16836 0.54593,0.16836 0.71428,0 0.33672,-0.33672 -0.33671,-1.09186 0,-1.42857 0.16836,-0.16836 0.54593,0.16835 0.71429,0 0.16836,-0.16836 -0.16836,-0.54593 0,-0.71429 0.16836,-0.16836 0.54593,0.16836 0.71429,0 0.16835,-0.16836 -0.10648,-0.50133 0,-0.71429 0.15058,-0.30116 0.5637,-0.41311 0.71428,-0.71428 0.10648,-0.21296 -0.10648,-0.50133 0,-0.71429 0.15059,-0.30117 0.5637,-0.41311 0.71429,-0.71428 0.10648,-0.21296 -0.16836,-0.54593 0,-0.71429 0.16836,-0.16836 0.54592,0.16836 0.71428,0 0.16836,-0.16836 -0.10648,-0.50133 0,-0.71428 0.15059,-0.30117 0.5637,-0.41312 0.71429,-0.71429 0.10648,-0.21296 -0.16836,-0.54593 0,-0.71429 0.16836,-0.16835 0.54593,0.16836 0.71428,0 0.35715,-0.35714 -0.35714,-1.78571 0,-2.14285 0.16836,-0.16836 0.54593,0.16836 0.71429,0 0.33672,-0.33672 -0.33672,-1.09186 0,-1.42857 0.16836,-0.16836 0.54593,0.16835 0.71429,0 0.16835,-0.16836 -0.10648,-0.50133 0,-0.71429 0.15058,-0.30117 0.5637,-0.41312 0.71428,-0.71429 0.10648,-0.21295 -0.16836,-0.54592 0,-0.71428 0.16836,-0.16836 0.54593,0.16836 0.71429,0 0.16836,-0.16836 -0.16836,-0.54593 0,-0.71429 0.16836,-0.16836 0.54592,0.16836 0.71428,0 0.16836,-0.16836 -0.10648,-0.50132 0,-0.71428 0.15059,-0.30117 0.5637,-0.41312 0.71429,-0.71429 0.10648,-0.21296 -0.16836,-0.54593 0,-0.71428 0.16836,-0.16836 0.54593,0.16835 0.71428,0 0.33672,-0.33672 -0.33671,-1.09186 0,-1.42858 0.16836,-0.16835 0.54593,0.16836 0.71429,0 0.33672,-0.33671 -0.33672,-1.09185 0,-1.42857 0.16836,-0.16836 0.54593,0.16836 0.71429,0 0.17188,-0.17188 -0.17188,-2.68526 0,-2.85714 0.16836,-0.16836 0.50132,0.10648 0.71428,0 0.30117,-0.15058 0.41312,-0.5637 0.71429,-0.71429 0.21296,-0.10647 0.54592,0.16836 0.71428,0 0.21898,-0.21897 -0.22074,-3.35068 0,-3.57142 0.16836,-0.16836 0.54593,0.16835 0.71429,0 0.023,-0.023 0,-1.96963 0,-2.14286 0,-0.2381 0,-0.47619 0,-0.71429 0,-0.23809 -0.16836,-0.54592 0,-0.71428 0.16836,-0.16836 0.54593,0.16836 0.71428,0 0.16836,-0.16836 0,-0.47619 0,-0.71429 0,-0.33678 -0.0324,-3.53905 0,-3.57143 0.16836,-0.16836 0.54593,0.16836 0.71429,0 0.33672,-0.33671 -0.33672,-1.09185 0,-1.42857 0.16836,-0.16836 0.54593,0.16836 0.71429,0 0.33671,-0.33672 -0.21296,-1.00265 0,-1.42857 0.15058,-0.30117 0.5637,-0.41312 0.71428,-0.71429 0.28572,-0.57142 -0.28571,-1.57142 0,-2.14285 0.15059,-0.30117 0.5637,-0.41312 0.71429,-0.71429 0.21296,-0.42592 -0.33672,-1.09185 0,-1.42857 0.16836,-0.16836 0.54592,0.16836 0.71428,0 0.33672,-0.33672 -0.21296,-1.00265 0,-1.42857 0.15059,-0.30117 0.5637,-0.41312 0.71429,-0.71429 0.21296,-0.42591 -0.33672,-1.09185 0,-1.42857 0.16836,-0.16836 0.54593,0.16836 0.71428,0 0.25073,-0.25073 -0.24669,-3.07805 0,-3.57143 0.15059,-0.30117 0.56371,-0.41311 0.71429,-0.71428 0.21296,-0.42592 -0.33672,-1.09186 0,-1.42857 0.16836,-0.16836 0.60781,0.21295 0.71429,0 0.21296,-0.42592 -0.15059,-0.97682 0,-1.42858 0.10648,-0.319434 0.5637,-0.413112 0.71428,-0.714281 0.10869,-0.217382 0,-1.821173 0,-2.142857 0,-1.666667 0,-3.333334 0,-5 0,-0.238096 0,-0.476191 0,-0.714286 0,-0.238095 -0.16836,-0.545927 0,-0.714286 0.16836,-0.168359 0.54593,0.168359 0.71429,0 0.16836,-0.168359 -0.16836,-0.545927 0,-0.714286 0.16836,-0.168358 0.54592,0.168359 0.71428,0 0.33672,-0.336717 -0.33671,-1.091853 0,-1.428571 0.16836,-0.168359 0.54593,0.168359 0.71429,0 0.16836,-0.168359 -0.16836,-0.545927 0,-0.714286 0.16836,-0.168358 0.54593,0.168359 0.71428,0 0.16836,-0.168358 -0.16835,-0.545927 0,-0.714285 0.16836,-0.168359 0.54593,0.168358 0.71429,0 0.16836,-0.168359 -0.16836,-0.545927 0,-0.714286 0.16836,-0.168359 0.54593,0.168359 0.71429,0 0.16836,-0.168359 -0.16836,-0.545927 0,-0.714286 0.16836,-0.168359 0.54592,0.168359 0.71428,0 0.16836,-0.168359 -0.16836,-0.545927 0,-0.714286 0.16836,-0.168358 0.71429,-0.238095 0.71429,0 0,0.238096 -0.95238,0 -0.71429,0 0.47619,0 1.00266,0.212959 1.42857,0 0.21296,-0.106479 -0.16836,-0.545927 0,-0.714285 0.16836,-0.168359 0.50133,0.106479 0.71429,0 0.30117,-0.150585 0.41312,-0.563701 0.71428,-0.714286 0.21296,-0.106479 0.54593,0.168359 0.71429,0 0.16836,-0.168359 -0.16836,-0.545927 0,-0.714286 0.16836,-0.168358 0.71429,-0.238095 0.71429,0 0,0.238096 -0.95238,0 -0.71429,0 0.71429,0 1.42857,0 2.14286,0 0.23809,0 0.54592,-0.168358 0.71428,0 0.16836,0.168359 -0.16836,0.545927 0,0.714286 0.16836,0.168359 0.54593,-0.168359 0.71429,0 0.16836,0.168359 -0.16836,0.545927 0,0.714286 0.33672,0.336717 1.09185,-0.336718 1.42857,0 0.16836,0.168358 -0.16836,0.545927 0,0.714285 0.16836,0.168359 0.54593,-0.168358 0.71429,0 0.16836,0.168359 -0.16836,0.545927 0,0.714286 0.16836,0.168359 0.54592,-0.168359 0.71428,0 0.16836,0.168359 -0.16836,0.545927 0,0.714286 0.16836,0.168359 0.54593,-0.168359 0.71429,0 0.16836,0.168359 -0.16836,0.545927 0,0.714286 0.16836,0.168358 0.54592,-0.168359 0.71428,0 0.16836,0.168358 -0.16836,0.545927 0,0.714285 0.16836,0.168359 0.54593,-0.168358 0.71429,0 0.35714,0.357143 -0.35714,1.785715 0,2.142857 0.16836,0.168359 0.54593,-0.168358 0.71428,0 0.33672,0.336718 -0.33671,1.091854 0,1.428572 0.16836,0.168359 0.54593,-0.168359 0.71429,0 0.35714,0.357143 -0.35714,1.785714 0,2.142857 0.16836,0.168359 0.54593,-0.168359 0.71429,0 0.35714,0.357143 -0.35715,1.785714 0,2.142857 0.16836,0.168359 0.54592,-0.168359 0.71428,0 0.33672,0.336718 -0.21296,1.002654 0,1.428572 0.15059,0.301169 0.5637,0.413116 0.71429,0.714285 0.21296,0.425918 -0.21296,1.002654 0,1.428572 0.15058,0.301169 0.5637,0.413116 0.71428,0.714281 0.10648,0.21296 -0.16836,0.54593 0,0.71429 0.16836,0.16836 0.54593,-0.16836 0.71429,0 0.33672,0.33672 -0.21296,1.00265 0,1.42857 0.15058,0.30117 0.5637,0.41312 0.71428,0.71429 0.10648,0.21296 -0.16835,0.54592 0,0.71428 0.16836,0.16836 0.54593,-0.16836 0.71429,0 0.16836,0.16836 -0.10648,0.50133 0,0.71429 0.15059,0.30117 0.5637,0.41312 0.71429,0.71428 0.10648,0.21296 -0.10648,0.50133 0,0.71429 0.30117,0.60234 1.1274,0.82623 1.42857,1.42857 0.10648,0.21296 0,0.47619 0,0.71429 0,0.71428 0.22587,1.46522 0,2.14285 -0.15059,0.45176 -1.09186,-0.33671 -1.42857,0 -0.16836,0.16836 0,0.47619 0,0.71429 0,0.37351 -0.0939,2.66933 0,2.85714 0.15058,0.30117 0.5637,0.41312 0.71428,0.71429 0.21296,0.42592 -0.21296,1.00265 0,1.42857 0.15059,0.30117 0.5637,0.41312 0.71429,0.71429 0.10648,0.21295 -0.16836,0.54592 0,0.71428 0.16836,0.16836 0.54592,-0.16836 0.71428,0 1.47789,1.47788 -2.2584,-0.0578 0.71429,1.42857 0.21296,0.10648 0.54593,-0.16836 0.71428,0 0.33672,0.33672 -0.33671,1.09186 0,1.42857 0.16836,0.16836 0.54593,-0.16835 0.71429,0 0.16836,0.16836 -0.16836,0.54593 0,0.71429 0.16836,0.16836 0.54593,-0.16836 0.71429,0 0.16836,0.16836 -0.16836,0.54593 0,0.71429 0.16836,0.16835 0.54592,-0.16836 0.71428,0 0.33672,0.33671 -0.33672,1.09185 0,1.42857 0.16836,0.16836 0.54593,-0.16836 0.71429,0 0.16836,0.16836 -0.16836,0.54592 0,0.71428 0.16836,0.16836 0.54592,-0.16836 0.71428,0 0.16836,0.16836 -0.10648,0.50133 0,0.71429 0.15059,0.30117 0.5637,0.41312 0.71429,0.71428 0.10648,0.21296 -0.10648,0.50133 0,0.71429 0.15058,0.30117 0.5637,0.41312 0.71428,0.71429 0.14161,0.2832 -0.14602,1.99683 0,2.14285 0.16836,0.16836 0.54593,-0.16836 0.71429,0 0.35714,0.35715 -0.35714,1.78572 0,2.14286 0.16836,0.16836 0.54593,-0.16836 0.71429,0 0.33671,0.33672 -0.21296,1.00265 0,1.42857 0.15058,0.30117 0.5637,0.41312 0.71428,0.71429 0.21296,0.42592 -0.33672,1.09185 0,1.42857 0.16836,0.16836 0.54593,-0.16836 0.71429,0 0.33672,0.33672 -0.33672,1.09185 0,1.42857 0.16836,0.16836 0.54592,-0.16836 0.71428,0 0.35715,0.35714 -0.35714,1.78571 0,2.14286 0.16836,0.16836 0.54593,-0.16836 0.71429,0 0.33672,0.33671 -0.33672,1.09185 0,1.42857 0.16836,0.16836 0.54593,-0.16836 0.71428,0 0.35715,0.35714 -0.35714,1.78571 0,2.14286 0.16836,0.16835 0.54593,-0.16836 0.71429,0 0.35714,0.35714 -0.35714,1.78571 0,2.14285 0.16836,0.16836 0.54593,-0.16836 0.71429,0 0.0324,0.0324 0,3.23465 0,3.57143 0,0.2381 -0.16836,0.54593 0,0.71429 0.16836,0.16836 0.54592,-0.16836 0.71428,0 0.25073,0.25073 -0.24669,3.07804 0,3.57143 0.15059,0.30117 0.5637,0.41311 0.71429,0.71428 0.10648,0.21296 0,0.47619 0,0.71429 0,0.23809 0,0.47619 0,0.71428 0,0.71429 0,1.42857 0,2.14286 0,0.26231 -0.0288,2.8284 0,2.85714 0.16836,0.16836 0.54592,-0.16836 0.71428,0 0.33672,0.33672 -0.33671,1.09186 0,1.42857 0.16836,0.16836 0.54593,-0.16835 0.71429,0 0.16836,0.16836 -0.10648,0.50133 0,0.71429 0.42857,0.85714 1.71428,1.28571 2.14286,2.14286 0.10648,0.21296 -0.16836,0.54592 0,0.71428 0.16836,0.16836 0.54592,-0.16836 0.71428,0 0.16836,0.16836 -0.16836,0.54593 0,0.71429 0.16836,0.16836 0.54593,-0.16836 0.71429,0 0.33672,0.33672 -0.33672,1.09185 0,1.42857 0.16836,0.16836 0.54592,-0.16836 0.71428,0 0.16836,0.16836 0,0.47619 0,0.71429 0,0.71428 0.11743,1.43829 0,2.14285 -0.12378,0.74268 -0.53167,1.41242 -0.71428,2.14286 -0.0977,0.39077 -0.0701,2.07279 0,2.14286 0.16836,0.16836 0.54592,-0.16836 0.71428,0 0.35715,0.35714 -0.35714,1.78571 0,2.14285 0.16836,0.16836 0.54593,-0.16835 0.71429,0 0.16836,0.16836 -0.10648,0.50133 0,0.71429 0.15058,0.30117 0.5637,0.41312 0.71428,0.71429 0.10648,0.21295 -0.16835,0.54592 0,0.71428 0.16836,0.16836 0.54593,-0.16836 0.71429,0 0.16836,0.16836 -0.16836,0.54593 0,0.71429 0.16836,0.16836 0.54593,-0.16836 0.71429,0 0.16836,0.16836 -0.16836,0.54592 0,0.71428 0.16836,0.16836 0.54592,-0.16836 0.71428,0 0.16836,0.16836 -0.16836,0.54593 0,0.71429 0.16836,0.16836 0.54593,-0.16836 0.71429,0 0.33672,0.33672 -0.33672,1.09185 0,1.42857 0.16836,0.16836 0.50132,-0.10648 0.71428,0 0.38149,0.19074 1.76681,1.76681 2.14286,2.14286 0.37605,0.37604 1.95211,1.76137 2.14286,2.14285 0.10648,0.21296 -0.16836,0.54593 0,0.71429 0.16836,0.16836 0.54592,-0.16836 0.71428,0 0.16836,0.16836 -0.16836,0.54593 0,0.71429 0.16836,0.16835 0.54593,-0.16836 0.71429,0 0.16836,0.16835 -0.10648,0.50132 0,0.71428 0.32485,0.6497 2.71382,2.03537 2.85714,2.14286 0.53875,0.40406 0.95238,0.95238 1.42857,1.42857 0.71429,0.71429 1.42857,1.42857 2.14286,2.14286 0.47619,0.47619 0.86824,1.05501 1.42857,1.42857 1.54041,1.02694 2.57231,0.71428 4.28572,0.71428 0.23809,0 0.47619,0 0.71428,0 0.2381,0 0.54593,-0.16835 0.71429,0 0.16836,0.16836 -0.16836,0.54593 0,0.71429 0.16836,0.16836 0.47619,0 0.71428,0 0.60475,0 2.47314,0.128 2.85715,0 0.31943,-0.10648 0.39484,-0.60781 0.71428,-0.71429 0.67763,-0.22587 1.42857,0 2.14286,0 0.23809,0 0.47619,0 0.71428,0 0.2381,0 0.71429,-0.23809 0.71429,0 0,0.2381 -0.71429,0.2381 -0.71429,0 0,-0.33671 0.43412,-0.5275 0.71429,-0.71428 3.11967,-2.07978 -0.23544,0.31657 2.85714,-0.71429 0.31944,-0.10648 0.41312,-0.5637 0.71429,-0.71428 0.21296,-0.10648 0.50133,0.10648 0.71428,0 0.30117,-0.15059 0.39485,-0.60781 0.71429,-0.71429 0.45175,-0.15058 1.00265,0.21296 1.42857,0 0.21296,-0.10648 -0.16836,-0.54593 0,-0.71428 0.0178,-0.0178 3.30309,0 3.57143,0 0.41157,0 3.31109,0.13017 3.57143,0 1.76529,-0.88265 -0.24656,-0.71429 1.42857,-0.71429 2.38095,0 4.76191,0 7.14286,0 0.23809,0 0.47619,0 0.71428,0 0.2381,0 0.54593,0.16836 0.71429,0 0.16836,-0.16836 -0.16836,-0.54593 0,-0.71429 0.14603,-0.14602 1.85965,0.14161 2.14286,0 0.30117,-0.15058 0.41311,-0.5637 0.71428,-0.71428 0.21296,-0.10648 0.47619,0 0.71429,0 0.47619,0 0.95238,0 1.42857,0 1.19048,0 2.38095,0 3.57143,0 0.47619,0 0.9666,0.11549 1.42857,0 0.5165,-0.12913 0.91207,-0.58516 1.42857,-0.71429 0.3977,-0.0994 3.44811,0.12332 3.57143,0 0.16836,-0.16836 -0.16836,-0.54592 0,-0.71428 0.16836,-0.16836 0.54593,0.16836 0.71428,0 0.16836,-0.16836 0,-0.47619 0,-0.71429 0,-0.23809 -0.16835,-0.54593 0,-0.71428 0.16836,-0.16836 0.54593,0.16835 0.71429,0 0.16836,-0.16836 -0.16836,-0.54593 0,-0.71429 0.16836,-0.16836 0.54593,0.16836 0.71429,0 0.16836,-0.16836 -0.10648,-0.50133 0,-0.71429 0.15058,-0.30116 0.5637,-0.41311 0.71428,-0.71428 0.10648,-0.21296 -0.16836,-0.54593 0,-0.71429 0.16836,-0.16836 0.54593,0.16836 0.71429,0 0.16836,-0.16836 -0.16836,-0.54592 0,-0.71428 0.16836,-0.16836 0.54592,0.16836 0.71428,0 0.16836,-0.16836 -0.16836,-0.54593 0,-0.71429 0.16836,-0.16836 0.54593,0.16836 0.71429,0 0,-0.23809 0,-0.47619 0,-0.71428 0,-0.2381 -0.16836,-0.54593 0,-0.71429 0.16836,-0.16836 0.54593,0.16836 0.71428,0 0.16836,-0.16836 -0.16835,-0.54593 0,-0.71429 0.16836,-0.16835 0.54593,0.16836 0.71429,0 0.16836,-0.16835 -0.10648,-0.50132 0,-0.71428 0.15059,-0.30117 0.5637,-0.41312 0.71429,-0.71429 0.10648,-0.21296 -0.16836,-0.54592 0,-0.71428 0.16836,-0.16836 0.54592,0.16836 0.71428,0 0.16836,-0.16836 -0.16836,-0.54593 0,-0.71429 0.16836,-0.16836 0.54593,0.16836 0.71429,0 0.14602,-0.14602 -0.14161,-1.85965 0,-2.14286 0.15058,-0.30116 0.5637,-0.41311 0.71428,-0.71428 0.28572,-0.57143 -0.28571,-1.57143 0,-2.14286 0.15059,-0.30117 0.5637,-0.41311 0.71429,-0.71428 0.0923,-0.18468 0,-3.77943 0,-4.28572 0,-0.23809 -0.16836,-0.54593 0,-0.71428 0.16836,-0.16836 0.54593,0.16835 0.71428,0 0.22118,-0.22118 -0.22117,-3.35026 0,-3.57143 0.16836,-0.16836 0.54593,0.16836 0.71429,0 0.22118,-0.22118 -0.22118,-3.35025 0,-3.57143 0.16836,-0.16836 0.54593,0.16836 0.71429,0 0.16836,-0.16836 0,-0.47619 0,-0.71429 0,-1.42857 0,-2.85714 0,-4.28571 0,-0.2381 -0.16836,-0.54593 0,-0.71429 0.16836,-0.16836 0.54592,0.16836 0.71428,0 0.22118,-0.22117 -0.22117,-3.35025 0,-3.57143 0.16836,-0.16835 0.54593,0.16836 0.71429,0 0.22117,-0.22117 -0.22118,-3.35025 0,-3.57142 0.16836,-0.16836 0.54592,0.16835 0.71428,0 0.35715,-0.35715 -0.35714,-1.78572 0,-2.14286 0.16836,-0.16836 0.54593,0.16836 0.71429,0 0.16836,-0.16836 -0.16836,-0.54593 0,-0.71429 0.16836,-0.16836 0.54593,0.16836 0.71428,0 0.33672,-0.33671 -0.21295,-1.00265 0,-1.42857 0.15059,-0.30117 0.56371,-0.41311 0.71429,-0.71428 0.10648,-0.21296 -0.16836,-0.54593 0,-0.71429 0.16836,-0.16836 0.54593,0.16836 0.71429,0 0.33671,-0.33672 -0.21296,-1.00265 0,-1.42857 0.15058,-0.30117 0.5637,-0.41312 0.71428,-0.71429 0.21296,-0.42591 -0.33672,-1.09185 0,-1.42857 0.16836,-0.16836 0.54593,0.16836 0.71429,0 0.35714,-0.35714 -0.35715,-1.78571 0,-2.14286 0.16836,-0.16835 0.54592,0.16836 0.71428,0 0.35715,-0.35714 -0.35714,-1.78571 0,-2.14285 0.16836,-0.16836 0.54593,0.16836 0.71429,0 0.22118,-0.22118 -0.22118,-3.35025 0,-3.57143 0.16836,-0.16836 0.54593,0.16836 0.71428,0 0.16836,-0.16836 -0.16835,-0.54593 0,-0.71429 0.16836,-0.16836 0.50133,0.10648 0.71429,0 2.36899,-2.36898 -0.67343,0.33672 1.42857,-0.71428 0.30117,-0.15059 0.41312,-0.5637 0.71429,-0.71429 0.21296,-0.10648 0.54592,0.16836 0.71428,0 0.16836,-0.16836 0.2381,-0.71428 0,-0.71428 -0.33671,0 -1.051,0.71428 -0.71428,0.71428 0.53239,0 0.92349,-0.54593 1.42857,-0.71428 0.22588,-0.0753 0.54593,0.16835 0.71428,0 0.16836,-0.16836 -0.16835,-0.54593 0,-0.71429 0.16836,-0.16836 0.54593,0.16836 0.71429,0 0.16836,-0.16836 -0.16836,-0.54593 0,-0.71429 0.16836,-0.16835 0.71429,-0.23809 0.71429,0 0,0.2381 -0.95238,0 -0.71429,0 4.04762,0 0.2381,0.47619 1.42857,-0.71428 0.35714,-0.35714 1.78572,0.35714 2.14286,0 0.16836,-0.16836 -0.16836,-0.54593 0,-0.71429 0.16836,-0.16836 0.47619,0 0.71428,0 0.2381,0 0.71429,-0.23809 0.71429,0 0,0.2381 -0.71429,0.2381 -0.71429,0 0,-0.33671 0.41312,-0.5637 0.71429,-0.71428 0.21296,-0.10648 0.47619,0 0.71429,0 0.23809,0 0.47619,0 0.71428,0 0.2381,0 0.47619,0 0.71429,0 0.23809,0 0.71428,-0.2381 0.71428,0 0,0.23809 -0.88264,-0.16836 -0.71428,0 0.82076,0.82076 1.26323,0.71428 2.14285,0.71428"
       id="path3066"
       inkscape:connector-curvature="0" />
    <path
       sodipodi:type="arc"
       style="fill:#000000;fill-opacity:0;stroke:#000000;stroke-width:1;stroke-linejoin:round;stroke-miterlimit:4;stroke-opacity:1;stroke-dasharray:3, 1;stroke-dashoffset:0"
       id="path3068"
       sodipodi:cx="168.92857"
       sodipodi:cy="165.93361"
       sodipodi:rx="38.214287"
       sodipodi:ry="46.42857"
       d="m 207.14286,165.93361 c 0,25.64179 -17.10912,46.42857 -38.21429,46.42857 -21.10516,0 -38.21428,-20.78678 -38.21428,-46.42857 0,-25.64179 17.10912,-46.42857 38.21428,-46.42857 21.10517,0 38.21429,20.78678 38.21429,46.42857 z"
       transform="matrix(0.72246612,0,0,0.84849133,50.454831,27.997523)" />
    <path
       sodipodi:type="arc"
       style="fill:#000000;fill-opacity:0;stroke:#000000;stroke-width:1;stroke-linejoin:round;stroke-miterlimit:4;stroke-opacity:1;stroke-dasharray:3, 1;stroke-dashoffset:0"
       id="path3068-1"
       sodipodi:cx="168.92857"
       sodipodi:cy="165.93361"
       sodipodi:rx="38.214287"
       sodipodi:ry="46.42857"
       d="m 207.14286,165.93361 c 0,25.64179 -17.10912,46.42857 -38.21429,46.42857 -21.10516,0 -38.21428,-20.78678 -38.21428,-46.42857 0,-25.64179 17.10912,-46.42857 38.21428,-46.42857 21.10517,0 38.21429,20.78678 38.21429,46.42857 z"
       transform="matrix(0.83342313,0,0,0.91674057,152.78244,10.601254)" />
    <path
       sodipodi:type="arc"
       style="fill:#000000;fill-opacity:0;stroke:#000000;stroke-width:1;stroke-linejoin:round;stroke-miterlimit:4;stroke-opacity:1;stroke-dasharray:3, 1;stroke-dashoffset:0"
       id="path3068-5"
       sodipodi:cx="168.92857"
       sodipodi:cy="165.93361"
       sodipodi:rx="38.214287"
       sodipodi:ry="46.42857"
       d="m 207.14286,165.93361 c 0,25.64179 -17.10912,46.42857 -38.21429,46.42857 -21.10516,0 -38.21428,-20.78678 -38.21428,-46.42857 0,-25.64179 17.10912,-46.42857 38.21428,-46.42857 21.10517,0 38.21429,20.78678 38.21429,46.42857 z"
       transform="matrix(0.72246612,0,0,0.84849133,310.09769,7.2832385)" />
    <path
       sodipodi:type="arc"
       style="fill:#000000;fill-opacity:0;stroke:#000000;stroke-width:1;stroke-linejoin:round;stroke-miterlimit:4;stroke-opacity:1;stroke-dasharray:3, 1;stroke-dashoffset:0"
       id="path3068-6"
       sodipodi:cx="168.92857"
       sodipodi:cy="165.93361"
       sodipodi:rx="38.214287"
       sodipodi:ry="46.42857"
       d="m 207.14286,165.93361 c 0,25.64179 -17.10912,46.42857 -38.21429,46.42857 -21.10516,0 -38.21428,-20.78678 -38.21428,-46.42857 0,-25.64179 17.10912,-46.42857 38.21428,-46.42857 21.10517,0 38.21429,20.78678 38.21429,46.42857 z"
       transform="matrix(0.97929343,0,0,1.35988,357.4265,-95.787612)" />
    <path
       sodipodi:type="arc"
       style="fill:#000000;fill-opacity:0;stroke:#000000;stroke-width:1;stroke-linejoin:round;stroke-miterlimit:4;stroke-opacity:1;stroke-dasharray:3, 1;stroke-dashoffset:0"
       id="path3068-7"
       sodipodi:cx="168.92857"
       sodipodi:cy="165.93361"
       sodipodi:rx="38.214287"
       sodipodi:ry="46.42857"
       d="m 207.14286,165.93361 c 0,25.64179 -17.10912,46.42857 -38.21429,46.42857 -21.10516,0 -38.21428,-20.78678 -38.21428,-46.42857 0,-25.64179 17.10912,-46.42857 38.21428,-46.42857 21.10517,0 38.21429,20.78678 38.21429,46.42857 z"
       transform="matrix(1.0916244,0,0,1.1907986,464.87916,-41.302751)" />
    <path
       style="fill:none;stroke:#000000;stroke-width:1;stroke-linecap:butt;stroke-linejoin:miter;stroke-miterlimit:4;stroke-opacity:1;stroke-dasharray:3, 1;stroke-dashoffset:0;marker-end:url(#Arrow1Lend)"
       d="m 650,213.79075 0,32.14286"
       id="path3879"
       inkscape:connector-curvature="0" />
    <path
       style="fill:none;stroke:#000000;stroke-width:1;stroke-linecap:butt;stroke-linejoin:miter;stroke-miterlimit:4;stroke-opacity:1;stroke-dasharray:3, 1;stroke-dashoffset:0;marker-end:url(#Arrow1Lend)"
       d="m 527.14286,192.00504 -0.71429,55"
       id="path3879-4"
       inkscape:connector-curvature="0"
       sodipodi:nodetypes="cc" />
    <path
       style="fill:none;stroke:#000000;stroke-width:1;stroke-linecap:butt;stroke-linejoin:miter;stroke-miterlimit:4;stroke-opacity:1;stroke-dasharray:3, 1;stroke-dashoffset:0;marker-end:url(#Arrow1Lend)"
       d="m 432.67534,186.29075 0,61.42857"
       id="path3879-4-3"
       inkscape:connector-curvature="0"
       sodipodi:nodetypes="cc" />
    <path
       style="fill:none;stroke:#000000;stroke-width:1;stroke-linecap:butt;stroke-linejoin:miter;stroke-miterlimit:4;stroke-opacity:1;stroke-dasharray:3, 1;stroke-dashoffset:0;marker-end:url(#Arrow1Lend)"
       d="m 292.14286,209.14789 0,32.14286"
       id="path3879-6"
       inkscape:connector-curvature="0" />
    <path
       style="fill:none;stroke:#000000;stroke-width:1;stroke-linecap:butt;stroke-linejoin:miter;stroke-miterlimit:4;stroke-opacity:1;stroke-dasharray:3, 1;stroke-dashoffset:0;marker-end:url(#Arrow1Lend)"
       d="m 171.42857,211.29075 0,32.14286"
       id="path3879-63"
       inkscape:connector-curvature="0" />
    <text
       xml:space="preserve"
       style="font-size:32px;font-style:normal;font-weight:normal;line-height:125%;letter-spacing:0px;word-spacing:0px;fill:#000000;fill-opacity:1;stroke:none;font-family:Sans"
       x="715.44885"
       y="140.93359"
       id="text4408"
       sodipodi:linespacing="125%"><tspan
         sodipodi:role="line"
         id="tspan4410"
         x="715.44885"
         y="140.93359"
         style="font-size:20px">F0 contour</tspan></text>
    <text
       xml:space="preserve"
       style="font-size:32px;font-style:normal;font-weight:normal;line-height:125%;letter-spacing:0px;word-spacing:0px;fill:#000000;fill-opacity:1;stroke:none;font-family:Sans"
       x="166.42857"
       y="273.79077"
       id="text4412"
       sodipodi:linespacing="125%"><tspan
         sodipodi:role="line"
         id="tspan4414"
         x="166.42857"
         y="273.79077"
         style="font-size:20px">a</tspan></text>
    <text
       xml:space="preserve"
       style="font-size:32px;font-style:normal;font-weight:normal;line-height:125%;letter-spacing:0px;word-spacing:0px;fill:#000000;fill-opacity:1;stroke:none;font-family:Sans"
       x="284.17969"
       y="274.24973"
       id="text4412-3"
       sodipodi:linespacing="125%"><tspan
         sodipodi:role="line"
         id="tspan4414-6"
         x="284.17969"
         y="274.24973"
         style="font-size:20px">a</tspan></text>
    <text
       xml:space="preserve"
       style="font-size:32px;font-style:normal;font-weight:normal;line-height:125%;letter-spacing:0px;word-spacing:0px;fill:#000000;fill-opacity:1;stroke:none;font-family:Sans"
       x="429.89398"
       y="274.96402"
       id="text4412-6"
       sodipodi:linespacing="125%"><tspan
         sodipodi:role="line"
         id="tspan4414-2"
         x="429.89398"
         y="274.96402"
         style="font-size:20px">a</tspan></text>
    <text
       xml:space="preserve"
       style="font-size:32px;font-style:normal;font-weight:normal;line-height:125%;letter-spacing:0px;word-spacing:0px;fill:#000000;fill-opacity:1;stroke:none;font-family:Sans"
       x="523.46539"
       y="273.53546"
       id="text4412-5"
       sodipodi:linespacing="125%"><tspan
         sodipodi:role="line"
         id="tspan4414-1"
         x="523.46539"
         y="273.53546"
         style="font-size:20px">a</tspan></text>
    <text
       xml:space="preserve"
       style="font-size:32px;font-style:normal;font-weight:normal;line-height:125%;letter-spacing:0px;word-spacing:0px;fill:#000000;fill-opacity:1;stroke:none;font-family:Sans"
       x="648.46539"
       y="271.39261"
       id="text4412-0"
       sodipodi:linespacing="125%"><tspan
         sodipodi:role="line"
         id="tspan4414-0"
         x="648.46539"
         y="271.39261"
         style="font-size:20px">b</tspan></text>
    <text
       xml:space="preserve"
       style="font-size:32px;font-style:normal;font-weight:normal;line-height:125%;letter-spacing:0px;word-spacing:0px;fill:#000000;fill-opacity:1;stroke:none;font-family:Sans"
       x="651.32257"
       y="354.96402"
       id="text4412-03"
       sodipodi:linespacing="125%"><tspan
         sodipodi:role="line"
         id="tspan4414-7"
         x="651.32257"
         y="354.96402"
         style="font-size:20px">s</tspan></text>
    <text
       xml:space="preserve"
       style="font-size:32px;font-style:normal;font-weight:normal;line-height:125%;letter-spacing:0px;word-spacing:0px;fill:#000000;fill-opacity:1;stroke:none;font-family:Sans"
       x="591.16492"
       y="356.39261"
       id="text4412-03-3"
       sodipodi:linespacing="125%"><tspan
         sodipodi:role="line"
         id="tspan4414-7-0"
         x="591.16492"
         y="356.39261"
         style="font-size:20px">s</tspan></text>
    <text
       xml:space="preserve"
       style="font-size:32px;font-style:normal;font-weight:normal;line-height:125%;letter-spacing:0px;word-spacing:0px;fill:#000000;fill-opacity:1;stroke:none;font-family:Sans"
       x="508.30777"
       y="352.82117"
       id="text4412-03-5"
       sodipodi:linespacing="125%"><tspan
         sodipodi:role="line"
         id="tspan4414-7-08"
         x="508.30777"
         y="352.82117"
         style="font-size:20px">s</tspan></text>
    <text
       xml:space="preserve"
       style="font-size:32px;font-style:normal;font-weight:normal;line-height:125%;letter-spacing:0px;word-spacing:0px;fill:#000000;fill-opacity:1;stroke:none;font-family:Sans"
       x="459.02203"
       y="354.24973"
       id="text4412-03-56"
       sodipodi:linespacing="125%"><tspan
         sodipodi:role="line"
         id="tspan4414-7-4"
         x="459.02203"
         y="354.24973"
         style="font-size:20px">s</tspan></text>
    <text
       xml:space="preserve"
       style="font-size:32px;font-style:normal;font-weight:normal;line-height:125%;letter-spacing:0px;word-spacing:0px;fill:#000000;fill-opacity:1;stroke:none;font-family:Sans"
       x="419.73633"
       y="353.53546"
       id="text4412-03-59"
       sodipodi:linespacing="125%"><tspan
         sodipodi:role="line"
         id="tspan4414-7-083"
         x="419.73633"
         y="353.53546"
         style="font-size:20px">s</tspan></text>
    <text
       xml:space="preserve"
       style="font-size:32px;font-style:normal;font-weight:normal;line-height:125%;letter-spacing:0px;word-spacing:0px;fill:#000000;fill-opacity:1;stroke:none;font-family:Sans"
       x="378.30777"
       y="355.67831"
       id="text4412-03-8"
       sodipodi:linespacing="125%"><tspan
         sodipodi:role="line"
         id="tspan4414-7-6"
         x="378.30777"
         y="355.67831"
         style="font-size:20px">s</tspan></text>
    <text
       xml:space="preserve"
       style="font-size:32px;font-style:normal;font-weight:normal;line-height:125%;letter-spacing:0px;word-spacing:0px;fill:#000000;fill-opacity:1;stroke:none;font-family:Sans"
       x="325.45062"
       y="352.82117"
       id="text4412-03-4"
       sodipodi:linespacing="125%"><tspan
         sodipodi:role="line"
         id="tspan4414-7-9"
         x="325.45062"
         y="352.82117"
         style="font-size:20px">s</tspan></text>
    <text
       xml:space="preserve"
       style="font-size:32px;font-style:normal;font-weight:normal;line-height:125%;letter-spacing:0px;word-spacing:0px;fill:#000000;fill-opacity:1;stroke:none;font-family:Sans"
       x="277.59348"
       y="352.82117"
       id="text4412-03-33"
       sodipodi:linespacing="125%"><tspan
         sodipodi:role="line"
         id="tspan4414-7-47"
         x="277.59348"
         y="352.82117"
         style="font-size:20px">s</tspan></text>
    <text
       xml:space="preserve"
       style="font-size:32px;font-style:normal;font-weight:normal;line-height:125%;letter-spacing:0px;word-spacing:0px;fill:#000000;fill-opacity:1;stroke:none;font-family:Sans"
       x="147.59348"
       y="352.10687"
       id="text4412-03-1"
       sodipodi:linespacing="125%"><tspan
         sodipodi:role="line"
         id="tspan4414-7-3"
         x="147.59348"
         y="352.10687"
         style="font-size:20px">s</tspan></text>
    <text
       xml:space="preserve"
       style="font-size:32px;font-style:normal;font-weight:normal;line-height:125%;letter-spacing:0px;word-spacing:0px;fill:#000000;fill-opacity:1;stroke:none;font-family:Sans"
       x="206.87918"
       y="354.96402"
       id="text4412-03-9"
       sodipodi:linespacing="125%"><tspan
         sodipodi:role="line"
         id="tspan4414-7-7"
         x="206.87918"
         y="354.96402"
         style="font-size:20px">s</tspan></text>
    <path
       style="fill:none;stroke:#000000;stroke-width:1;stroke-linecap:butt;stroke-linejoin:miter;stroke-miterlimit:4;stroke-opacity:1;stroke-dasharray:2, 1;stroke-dashoffset:0"
       d="m 170.71429,278.79075 -11.42858,50"
       id="path4566"
       inkscape:connector-curvature="0" />
    <path
       style="fill:none;stroke:#000000;stroke-width:1;stroke-linecap:butt;stroke-linejoin:miter;stroke-miterlimit:4;stroke-opacity:1;stroke-dasharray:2, 1;stroke-dashoffset:0"
       d="m 290,277.36218 -2.85714,55"
       id="path4568"
       inkscape:connector-curvature="0" />
    <path
       style="fill:none;stroke:#000000;stroke-width:1;stroke-linecap:butt;stroke-linejoin:miter;stroke-miterlimit:4;stroke-opacity:1;stroke-dasharray:3, 1;stroke-dashoffset:0"
       d="m 435.71429,278.07647 -10,52.85714"
       id="path4570"
       inkscape:connector-curvature="0" />
    <path
       style="fill:none;stroke:#000000;stroke-width:1;stroke-linecap:butt;stroke-linejoin:miter;stroke-miterlimit:4;stroke-opacity:1;stroke-dasharray:3, 1;stroke-dashoffset:0"
       d="M 531.42857,279.50504 515,332.36218"
       id="path4572"
       inkscape:connector-curvature="0" />
    <path
       style="fill:none;stroke:#000000;stroke-width:1;stroke-linecap:butt;stroke-linejoin:miter;stroke-miterlimit:4;stroke-opacity:1;stroke-dasharray:3, 1;stroke-dashoffset:0"
       d="m 653.57143,275.21932 7.14286,57.14286"
       id="path4574"
       inkscape:connector-curvature="0" />
    <text
       xml:space="preserve"
       style="font-size:32px;font-style:normal;font-weight:normal;text-align:center;line-height:125%;letter-spacing:0px;word-spacing:0px;text-anchor:middle;fill:#000000;fill-opacity:1;stroke:none;font-family:Sans"
       x="770.16077"
       y="255.35674"
       id="text4408-4"
       sodipodi:linespacing="125%"><tspan
         sodipodi:role="line"
         id="tspan4410-9"
         x="770.16077"
         y="255.35674"
         style="font-size:20px;text-align:center;text-anchor:middle">Intonational</tspan><tspan
         sodipodi:role="line"
         x="770.16077"
         y="280.35675"
         style="font-size:20px;text-align:center;text-anchor:middle"
         id="tspan4597">events</tspan></text>
    <text
       xml:space="preserve"
       style="font-size:32px;font-style:normal;font-weight:normal;text-align:center;line-height:125%;letter-spacing:0px;word-spacing:0px;text-anchor:middle;fill:#000000;fill-opacity:1;stroke:none;font-family:Sans"
       x="770.08264"
       y="331.07104"
       id="text4408-9"
       sodipodi:linespacing="125%"><tspan
         sodipodi:role="line"
         id="tspan4410-6"
         x="770.08264"
         y="331.07104"
         style="font-size:20px;text-align:center;text-anchor:middle">Syllable</tspan><tspan
         sodipodi:role="line"
         x="770.08264"
         y="356.07104"
         style="font-size:20px;text-align:center;text-anchor:middle"
         id="tspan4608">nuclei</tspan></text>
  </g>
</svg>
