<?xml version="1.0" encoding="UTF-8" standalone="no"?>
<!-- Creator: fig2dev Version 3.2 Patchlevel 5d -->

<!-- CreationDate: Wed Aug 28 20:18:49 2013 -->

<!-- Magnification: 1.000 -->

<svg
   xmlns:dc="http://purl.org/dc/elements/1.1/"
   xmlns:cc="http://creativecommons.org/ns#"
   xmlns:rdf="http://www.w3.org/1999/02/22-rdf-syntax-ns#"
   xmlns:svg="http://www.w3.org/2000/svg"
   xmlns="http://www.w3.org/2000/svg"
   xmlns:sodipodi="http://sodipodi.sourceforge.net/DTD/sodipodi-0.dtd"
   xmlns:inkscape="http://www.inkscape.org/namespaces/inkscape"
   width="9.7in"
   height="4.8in"
   viewBox="503 2592 11650 5797"
   id="svg2"
   version="1.1"
   inkscape:version="0.48.4 r9939"
   sodipodi:docname="tilt_fig02.svg">
  <metadata
     id="metadata64">
    <rdf:RDF>
      <cc:Work
         rdf:about="">
        <dc:format>image/svg+xml</dc:format>
        <dc:type
           rdf:resource="http://purl.org/dc/dcmitype/StillImage" />
      </cc:Work>
    </rdf:RDF>
  </metadata>
  <defs
     id="defs62" />
  <sodipodi:namedview
     pagecolor="#ffffff"
     bordercolor="#666666"
     borderopacity="1"
     objecttolerance="10"
     gridtolerance="10"
     guidetolerance="10"
     inkscape:pageopacity="0"
     inkscape:pageshadow="2"
     inkscape:window-width="1313"
     inkscape:window-height="744"
     id="namedview60"
     showgrid="false"
     inkscape:zoom="0.95252872"
     inkscape:cx="18.013111"
     inkscape:cy="243.76412"
     inkscape:window-x="1333"
     inkscape:window-y="24"
     inkscape:window-maximized="1"
     inkscape:current-layer="g4" />
  <g
     style="stroke-width:.025in; fill:none"
     id="g4">
    <!-- Line -->
    <polyline
       points="1008,6900 1950,6900 "
       style="stroke:#000000;stroke-width:15; stroke-linejoin:miter; stroke-linecap:butt; "
       id="polyline6" />
    <!-- Arrowhead on XXXpoint 1950 6900 - 945 6900-->
    <polyline
       points="1218 6840 978 6900 1218 6960 "
       style="stroke:#000000;stroke-width:15;stroke-miterlimit:8; "
       id="polyline8" />
    <!-- Line -->
    <polyline
       points="7093,6900 6150,6900 "
       style="stroke:#000000;stroke-width:15; stroke-linejoin:miter; stroke-linecap:butt; "
       id="polyline10" />
    <!-- Arrowhead on XXXpoint 6150 6900 - 7155 6900-->
    <polyline
       points="6882 6960 7122 6900 6882 6840 "
       style="stroke:#000000;stroke-width:15;stroke-miterlimit:8; "
       id="polyline12" />
    <!-- Line -->
    <polyline
       points="900,2625 900,7500 "
       style="stroke:#000000;stroke-width:15; stroke-linejoin:miter; stroke-linecap:butt; stroke-dasharray:10 45;"
       id="polyline14" />
    <!-- Line -->
    <polyline
       points="3000,2625 3000,7500 "
       style="stroke:#000000;stroke-width:15; stroke-linejoin:miter; stroke-linecap:butt; stroke-dasharray:10 45;"
       id="polyline16" />
    <!-- Line -->
    <polyline
       points="2100,2625 2100,7500 "
       style="stroke:#000000;stroke-width:15;stroke-linecap:butt;stroke-linejoin:miter;stroke-dasharray:60, 60"
       id="polyline18" />
    <!-- Line -->
    <polyline
       points="6000,2625 6000,7500 "
       style="stroke:#000000;stroke-width:15; stroke-linejoin:miter; stroke-linecap:butt; stroke-dasharray:60 60;"
       id="polyline20" />
    <!-- Line -->
    <polyline
       points="7200,2625 7200,7500 "
       style="stroke:#000000;stroke-width:15; stroke-linejoin:miter; stroke-linecap:butt; stroke-dasharray:10 45;"
       id="polyline22" />
    <!-- Line -->
    <polyline
       points="5100,2625 5100,7500 "
       style="stroke:#000000;stroke-width:30; stroke-linejoin:miter; stroke-linecap:butt; stroke-dasharray:10 60;"
       id="polyline24" />
    <!-- Line -->
    <polyline
       points="5283,4500 7092,4500 "
       style="stroke:#000000;stroke-width:15; stroke-linejoin:miter; stroke-linecap:butt; "
       id="polyline26" />
    <!-- Arrowhead on XXXpoint 5250 4500 - 7155 4500-->
    <polyline
       points="6882 4560 7122 4500 6882 4440 "
       style="stroke:#000000;stroke-width:15;stroke-miterlimit:8; "
       id="polyline28" />
    <!-- Arrowhead on XXXpoint 7125 4500 - 5220 4500-->
    <polyline
       points="5493 4440 5253 4500 5493 4560 "
       style="stroke:#000000;stroke-width:15;stroke-miterlimit:8; "
       id="polyline30" />
    <!-- Line -->
    <polyline
       points="1083,4500 2892,4500 "
       style="stroke:#000000;stroke-width:15; stroke-linejoin:miter; stroke-linecap:butt; "
       id="polyline32" />
    <!-- Arrowhead on XXXpoint 1050 4500 - 2955 4500-->
    <polyline
       points="2682 4560 2922 4500 2682 4440 "
       style="stroke:#000000;stroke-width:15;stroke-miterlimit:8; "
       id="polyline34" />
    <!-- Arrowhead on XXXpoint 2925 4500 - 1020 4500-->
    <polyline
       points="1293 4440 1053 4500 1293 4560 "
       style="stroke:#000000;stroke-width:15;stroke-miterlimit:8; "
       id="polyline36" />
    <!-- Line -->
    <polyline
       points="525,3506 526,3506 529,3506 534,3506 541,3507 552,3507 565,3508 582,3509 602,3510 625,3511 651,3512 679,3513 709,3514 740,3515 773,3516 807,3517 843,3517 880,3518 918,3518 958,3518 999,3518 1043,3517 1088,3517 1137,3515 1187,3514 1240,3512 1294,3509 1350,3506 1409,3502 1465,3498 1517,3494 1562,3489 1601,3485 1634,3481 1661,3478 1683,3474 1700,3471 1714,3468 1724,3465 1733,3462 1741,3459 1748,3456 1756,3453 1766,3450 1779,3447 1794,3444 1814,3440 1838,3437 1867,3433 1902,3428 1941,3424 1985,3420 2033,3416 2081,3412 2137,3408 2188,3405 2233,3403 2271,3402 2302,3402 2326,3402 2345,3403 2359,3405 2370,3407 2378,3409 2384,3411 2390,3413 2397,3415 2406,3417 2418,3419 2433,3420 2452,3420 2475,3420 2503,3420 2536,3418 2570,3416 2606,3413 2657,3407 2696,3400 2721,3393 2733,3385 2736,3377 2732,3369 2724,3361 2717,3354 2713,3347 2716,3341 2729,3336 2755,3333 2796,3334 2849,3338 2881,3342 2912,3347 2942,3351 2969,3353 2993,3355 3013,3354 3030,3352 3044,3348 3054,3343 3063,3337 3070,3330 3075,3322 3080,3315 3086,3308 3092,3302 3101,3298 3111,3297 3125,3298 3143,3303 3165,3313 3193,3329 3226,3350 3265,3378 3310,3414 3359,3457 3412,3507 3449,3545 3486,3584 3522,3624 3557,3664 3589,3703 3619,3741 3646,3776 3670,3810 3692,3841 3711,3870 3727,3897 3741,3922 3753,3945 3764,3966 3773,3986 3780,4005 3787,4023 3794,4041 3800,4058 3806,4076 3812,4094 3820,4112 3828,4132 3838,4154 3849,4177 3863,4203 3879,4230 3898,4261 3919,4295 3944,4331 3972,4371 4004,4414 4038,4460 4077,4510 4118,4561 4162,4615 4208,4670 4256,4725 4307,4782 4356,4837 4404,4889 4450,4937 4492,4981 4532,5021 4568,5056 4600,5087 4629,5115 4655,5138 4678,5159 4699,5176 4717,5191 4733,5203 4748,5214 4761,5223 4774,5232 4786,5239 4798,5247 4810,5254 4823,5262 4836,5271 4851,5282 4868,5293 4886,5307 4907,5322 4930,5340 4955,5359 4983,5382 5014,5407 5046,5434 5081,5463 5118,5494 5156,5525 5194,5557 5231,5588 5293,5639 5345,5681 5385,5714 5413,5737 5431,5752 5439,5760 5439,5762 5434,5760 5425,5754 5414,5747 5402,5740 5393,5733 5386,5729 5386,5727 5392,5729 5407,5736 5432,5748 5468,5765 5514,5788 5568,5813 5610,5832 5652,5850 5692,5868 5730,5883 5764,5898 5795,5910 5822,5921 5845,5929 5864,5937 5881,5943 5896,5948 5908,5953 5919,5956 5930,5960 5941,5963 5953,5967 5967,5972 5983,5977 6002,5983 6024,5991 6051,6000 6082,6011 6119,6024 6161,6039 6209,6055 6261,6074 6316,6093 6374,6113 6432,6133 6487,6152 6539,6170 6585,6186 6625,6201 6659,6214 6687,6226 6709,6237 6727,6246 6740,6254 6750,6261 6757,6267 6763,6273 6768,6278 6773,6284 6778,6289 6786,6295 6797,6300 6811,6307 6830,6313 6854,6320 6884,6328 6921,6336 6965,6345 7015,6353 7072,6361 7134,6369 7199,6375 7257,6379 7314,6382 7370,6383 7422,6383 7470,6382 7514,6381 7554,6378 7590,6375 7622,6372 7650,6368 7675,6364 7698,6359 7718,6354 7737,6349 7754,6344 7771,6339 7788,6334 7805,6329 7822,6324 7841,6318 7862,6313 7884,6308 7909,6303 7936,6297 7967,6292 7999,6287 8035,6283 8073,6278 8112,6274 8153,6270 8193,6266 8231,6263 8297,6258 8346,6255 8377,6254 8392,6254 8394,6255 8386,6257 8372,6259 8355,6262 8336,6264 8320,6267 8308,6270 8303,6272 8307,6275 8321,6277 8347,6280 8381,6282 8412,6284 8441,6285 8466,6287 8486,6288 8499,6289 8506,6290 8508,6290 8506,6291 8502,6291 8497,6291 8493,6291 8491,6291 8495,6292 8506,6292 8527,6293 8559,6294 8604,6295 8665,6297 8741,6298 8831,6300 8882,6301 8935,6302 8987,6303 9038,6304 9087,6305 9133,6306 9175,6307 9214,6307 9249,6308 9280,6309 9308,6310 9332,6311 9354,6311 9373,6312 9390,6313 9406,6314 9420,6314 9433,6315 9446,6316 9460,6316 9474,6317 9490,6318 9507,6318 9527,6319 9550,6319 9577,6320 9607,6320 9642,6321 9682,6321 9728,6321 9779,6321 9837,6322 9900,6322 9969,6321 10044,6321 10124,6321 10207,6320 10293,6319 10372,6318 10451,6317 10528,6316 10605,6314 10679,6313 10752,6311 10822,6310 10891,6308 10957,6307 11022,6305 11084,6303 11145,6301 11205,6299 11263,6298 11320,6296 11375,6294 11430,6292 11483,6290 11535,6288 11586,6286 11636,6284 11685,6282 11731,6280 11777,6278 11820,6277 11861,6275 11899,6273 11935,6272 11968,6270 11998,6269 12025,6268 12049,6267 12069,6266 12086,6265 12100,6264 12111,6264 12119,6264 12125,6263 12128,6263 12130,6263 12131,6263 "
       style="stroke:#000000;stroke-width:15; stroke-linejoin:bevel; stroke-linecap:butt; "
       id="polyline38" />
    <!-- Text -->
    <!-- Text -->
    <!-- Text -->
    <!-- Text -->
    <!-- Text -->
    <!-- Text -->
    <!-- Text -->
    <!-- Text -->
    <text
       xml:space="preserve"
       x="975"
       y="4800"
       font-style="normal"
       font-weight="normal"
       font-size="168"
       style="font-size:168px;font-style:normal;font-weight:normal;text-anchor:start;fill:#000000;font-family:Helvetica"
       id="text3041" />
    <!-- Text -->
    <!-- Text -->
    <text
       xml:space="preserve"
       style="font-size:20px;font-style:normal;font-weight:normal;line-height:125%;letter-spacing:0px;word-spacing:0px;fill:#000000;fill-opacity:1;stroke:none;font-family:Sans;text-anchor:middle;text-align:center"
       x="120.71652"
       y="171.43625"
       id="text3043"
       sodipodi:linespacing="125%"
       transform="matrix(13.418981,0,0,13.418981,470.615,2592)"><tspan
         sodipodi:role="line"
         id="tspan3045"
         x="62.357143"
         y="171.43625">start search</tspan><tspan
         sodipodi:role="line"
         x="62.357143"
         y="196.43625"
         id="tspan3047">region</tspan></text>
    <text
       xml:space="preserve"
       style="font-size:268.37960815px;font-style:normal;font-weight:normal;text-align:center;line-height:125%;letter-spacing:0px;word-spacing:0px;text-anchor:middle;fill:#000000;fill-opacity:1;stroke:none;font-family:Sans"
       x="6133.0283"
       y="4878.4956"
       id="text3043-8"
       sodipodi:linespacing="125%"><tspan
         sodipodi:role="line"
         id="tspan3045-2"
         x="6133.0283"
         y="4878.4956">end search</tspan><tspan
         sodipodi:role="line"
         x="6133.0283"
         y="5213.9702"
         id="tspan3047-5">region</tspan></text>
    <text
       xml:space="preserve"
       style="font-size:268.37960815px;font-style:normal;font-weight:normal;text-align:center;line-height:125%;letter-spacing:0px;word-spacing:0px;text-anchor:middle;fill:#000000;fill-opacity:1;stroke:none;font-family:Sans"
       x="1500.9125"
       y="6661.6108"
       id="text3043-4"
       sodipodi:linespacing="125%"><tspan
         sodipodi:role="line"
         x="1500.9125"
         y="6661.6108"
         id="tspan3047-2">start limit</tspan></text>
    <text
       xml:space="preserve"
       style="font-size:268.37960815px;font-style:normal;font-weight:normal;text-align:center;line-height:125%;letter-spacing:0px;word-spacing:0px;text-anchor:middle;fill:#000000;fill-opacity:1;stroke:none;font-family:Sans"
       x="2070.426"
       y="7821.6294"
       id="text3043-4-2"
       sodipodi:linespacing="125%"><tspan
         sodipodi:role="line"
         x="2070.426"
         y="7821.6294"
         id="tspan3047-2-2">input start</tspan><tspan
         sodipodi:role="line"
         x="2070.426"
         y="8157.1035"
         id="tspan3120">boundary</tspan></text>
    <text
       xml:space="preserve"
       style="font-size:268.37960815px;font-style:normal;font-weight:normal;text-align:center;line-height:125%;letter-spacing:0px;word-spacing:0px;text-anchor:middle;fill:#000000;fill-opacity:1;stroke:none;font-family:Sans"
       x="5950.0532"
       y="7807.1875"
       id="text3043-4-2-2"
       sodipodi:linespacing="125%"><tspan
         sodipodi:role="line"
         x="5950.0532"
         y="7807.1875"
         id="tspan3047-2-2-4">input end</tspan><tspan
         sodipodi:role="line"
         x="5950.0532"
         y="8142.6621"
         id="tspan3120-7">boundary</tspan></text>
    <text
       xml:space="preserve"
       style="font-size:268.37960815px;font-style:normal;font-weight:normal;text-align:center;line-height:125%;letter-spacing:0px;word-spacing:0px;text-anchor:middle;fill:#000000;fill-opacity:1;stroke:none;font-family:Sans"
       x="6622.8491"
       y="6725.8599"
       id="text3043-4-7"
       sodipodi:linespacing="125%"><tspan
         sodipodi:role="line"
         x="6622.8491"
         y="6725.8599"
         id="tspan3047-2-6">end limit</tspan></text>
  </g>
</svg>
