<?xml version="1.0" encoding="UTF-8" standalone="no"?>
<!-- Creator: fig2dev Version 3.2 Patchlevel 5d -->

<!-- CreationDate: Wed Aug 28 20:01:51 2013 -->

<!-- Magnification: 1.000 -->

<svg
   xmlns:dc="http://purl.org/dc/elements/1.1/"
   xmlns:cc="http://creativecommons.org/ns#"
   xmlns:rdf="http://www.w3.org/1999/02/22-rdf-syntax-ns#"
   xmlns:svg="http://www.w3.org/2000/svg"
   xmlns="http://www.w3.org/2000/svg"
   xmlns:sodipodi="http://sodipodi.sourceforge.net/DTD/sodipodi-0.dtd"
   xmlns:inkscape="http://www.inkscape.org/namespaces/inkscape"
   width="5.7in"
   height="6.1in"
   viewBox="188 1665 6897 7342"
   id="svg2"
   version="1.1"
   inkscape:version="0.48.4 r9939"
   sodipodi:docname="typical-pitch-accent.svg">
  <metadata
     id="metadata90">
    <rdf:RDF>
      <cc:Work
         rdf:about="">
        <dc:format>image/svg+xml</dc:format>
        <dc:type
           rdf:resource="http://purl.org/dc/dcmitype/StillImage" />
        <dc:title />
      </cc:Work>
    </rdf:RDF>
  </metadata>
  <defs
     id="defs88" />
  <sodipodi:namedview
     pagecolor="#ffffff"
     bordercolor="#666666"
     borderopacity="1"
     objecttolerance="10"
     gridtolerance="10"
     guidetolerance="10"
     inkscape:pageopacity="0"
     inkscape:pageshadow="2"
     inkscape:window-width="1313"
     inkscape:window-height="744"
     id="namedview86"
     showgrid="false"
     inkscape:zoom="0.85974499"
     inkscape:cx="589.27368"
     inkscape:cy="325.20753"
     inkscape:window-x="1333"
     inkscape:window-y="24"
     inkscape:window-maximized="1"
     inkscape:current-layer="g4" />
  <g
     style="stroke-width:.025in; fill:none"
     id="g4">
    <!-- Line: box -->
    <rect
       x="210"
       y="8460"
       width="150"
       height="195"
       rx="0"
       style="stroke:#ffffff;stroke-width:15; stroke-linejoin:miter; stroke-linecap:butt; stroke-dasharray:60 60;fill:#ffffff; "
       id="rect6" />
    <!-- Line -->
    <polyline
       points="5715,1710 5709,6135 "
       style="stroke:#000000;stroke-width:7; stroke-linejoin:miter; stroke-linecap:butt; stroke-dasharray:40 40;"
       id="polyline8" />
    <!-- Line -->
    <polyline
       points="3765,1710 3765,7935 "
       style="stroke:#000000;stroke-width:7; stroke-linejoin:miter; stroke-linecap:butt; stroke-dasharray:40 40;"
       id="polyline10" />
    <!-- Line -->
    <polyline
       points="2040,1710 2026,6135 "
       style="stroke:#000000;stroke-width:7; stroke-linejoin:miter; stroke-linecap:butt; stroke-dasharray:40 40;"
       id="polyline12" />
    <!-- Line -->
    <polyline
       points="4005,4935 5475,4935 "
       style="stroke:#d10000;stroke-width:15; stroke-linejoin:miter; stroke-linecap:butt; "
       id="polyline14" />
    <!-- Arrowhead on XXXpoint 3765 4935 - 5745 4935-->
    <polygon
       points="5405 4995 5705 4935 5405 4875 5465 4935 5405 4995  "
       style="stroke:#d10000;stroke-width:15;stroke-miterlimit:8; fill:#d10000;"
       id="polygon16" />
    <!-- Arrowhead on XXXpoint 5715 4935 - 3735 4935-->
    <polygon
       points="4075 4875 3775 4935 4075 4995 4015 4935 4075 4875  "
       style="stroke:#d10000;stroke-width:15;stroke-miterlimit:8; fill:#d10000;"
       id="polygon18" />
    <!-- Line -->
    <polyline
       points="2280,4935 3525,4935 "
       style="stroke:#d10000;stroke-width:15; stroke-linejoin:miter; stroke-linecap:butt; "
       id="polyline20" />
    <!-- Arrowhead on XXXpoint 2040 4935 - 3795 4935-->
    <polygon
       points="3455 4995 3755 4935 3455 4875 3515 4935 3455 4995  "
       style="stroke:#d10000;stroke-width:15;stroke-miterlimit:8; fill:#d10000;"
       id="polygon22" />
    <!-- Arrowhead on XXXpoint 3765 4935 - 2010 4935-->
    <polygon
       points="2350 4875 2050 4935 2350 4995 2290 4935 2350 4875  "
       style="stroke:#d10000;stroke-width:15;stroke-miterlimit:8; fill:#d10000;"
       id="polygon24" />
    <!-- Line -->
    <polyline
       points="1665,2850 1665,3753 "
       style="stroke:#d10000;stroke-width:15; stroke-linejoin:miter; stroke-linecap:butt; "
       id="polyline26" />
    <!-- Arrowhead on XXXpoint 1665 2610 - 1665 4023-->
    <polygon
       points="1605 3683 1665 3983 1725 3683 1665 3743 1605 3683  "
       style="stroke:#d10000;stroke-width:15;stroke-miterlimit:8; fill:#d10000;"
       id="polygon28" />
    <!-- Arrowhead on XXXpoint 1665 3993 - 1665 2580-->
    <polygon
       points="1725 2920 1665 2620 1605 2920 1665 2860 1725 2920  "
       style="stroke:#d10000;stroke-width:15;stroke-miterlimit:8; fill:#d10000;"
       id="polygon30" />
    <!-- Line -->
    <polyline
       points="6090,2925 6090,4620 "
       style="stroke:#d10000;stroke-width:15;stroke-linecap:butt;stroke-linejoin:miter"
       id="polyline32"
       transform="translate(-188.22223,-53.777778)" />
    <!-- Arrowhead on XXXpoint 6090 2685 - 6090 4890-->
    <polygon
       points="6030,4550 6090,4850 6150,4550 6090,4610 6030,4550 "
       style="fill:#d10000;stroke:#d10000;stroke-width:15;stroke-miterlimit:8"
       id="polygon34"
       transform="translate(-188.22223,-53.777778)" />
    <!-- Arrowhead on XXXpoint 6090 4860 - 6090 2655-->
    <polygon
       points="6150,2995 6090,2695 6030,2995 6090,2935 6150,2995 "
       style="fill:#d10000;stroke:#d10000;stroke-width:15;stroke-miterlimit:8"
       id="polygon36"
       transform="translate(-188.22223,-53.777778)" />
    <!-- Line -->
    <polyline
       points="2265,7560 2265,8835 "
       style="stroke:#000000;stroke-width:15; stroke-linejoin:miter; stroke-linecap:butt; "
       id="polyline38" />
    <!-- Line -->
    <polyline
       points="6090,7485 6090,8985 "
       style="stroke:#000000;stroke-width:15; stroke-linejoin:miter; stroke-linecap:butt; "
       id="polyline40" />
    <!-- Line -->
    <polyline
       points="2505,7785 3525,7785 "
       style="stroke:#d10000;stroke-width:15; stroke-linejoin:miter; stroke-linecap:butt; "
       id="polyline42" />
    <!-- Arrowhead on XXXpoint 2265 7785 - 3795 7785-->
    <polygon
       points="3455 7845 3755 7785 3455 7725 3515 7785 3455 7845  "
       style="stroke:#d10000;stroke-width:15;stroke-miterlimit:8; fill:#d10000;"
       id="polygon44" />
    <!-- Arrowhead on XXXpoint 3765 7785 - 2235 7785-->
    <polygon
       points="2575 7725 2275 7785 2575 7845 2515 7785 2575 7725  "
       style="stroke:#d10000;stroke-width:15;stroke-miterlimit:8; fill:#d10000;"
       id="polygon46" />
    <!-- Line -->
    <polyline
       points="1059,3994 1060,3994 1063,3994 1068,3995 1076,3996 1087,3997 1102,3998 1120,4000 1142,4002 1167,4004 1195,4006 1225,4008 1258,4011 1292,4013 1328,4016 1365,4018 1404,4020 1443,4021 1482,4022 1523,4023 1564,4024 1606,4024 1650,4023 1694,4021 1740,4019 1786,4016 1834,4012 1883,4007 1932,4001 1980,3994 2038,3984 2090,3973 2135,3963 2173,3955 2203,3948 2226,3942 2242,3938 2253,3936 2259,3935 2262,3935 2262,3936 2262,3937 2261,3937 2261,3936 2263,3934 2268,3930 2276,3924 2290,3914 2308,3901 2333,3883 2364,3860 2400,3833 2442,3801 2486,3764 2525,3730 2562,3696 2596,3662 2628,3630 2655,3600 2679,3572 2698,3547 2714,3525 2727,3505 2737,3488 2745,3472 2751,3457 2756,3443 2761,3430 2765,3417 2770,3403 2777,3388 2785,3371 2796,3353 2809,3333 2827,3309 2848,3283 2873,3254 2903,3222 2938,3187 2976,3150 3018,3111 3062,3073 3110,3033 3156,2997 3199,2964 3237,2934 3271,2909 3300,2887 3324,2868 3345,2852 3361,2838 3375,2827 3386,2817 3396,2809 3405,2801 3414,2793 3424,2786 3435,2779 3448,2771 3464,2763 3483,2755 3507,2746 3534,2737 3566,2728 3603,2719 3643,2712 3685,2707 3729,2705 3769,2707 3806,2711 3839,2717 3869,2723 3895,2730 3916,2736 3933,2742 3947,2746 3957,2750 3965,2753 3970,2756 3974,2758 3977,2760 3979,2762 3981,2765 3983,2769 3986,2774 3991,2781 3998,2791 4007,2804 4019,2820 4034,2841 4052,2866 4074,2896 4099,2932 4128,2974 4158,3021 4190,3073 4216,3119 4242,3166 4266,3213 4288,3258 4308,3302 4326,3344 4342,3383 4356,3419 4368,3452 4377,3482 4385,3510 4392,3536 4397,3559 4401,3582 4405,3603 4408,3623 4411,3643 4413,3662 4416,3683 4420,3704 4424,3726 4429,3750 4435,3776 4443,3804 4453,3835 4464,3869 4478,3905 4493,3945 4511,3987 4531,4032 4553,4079 4577,4128 4601,4176 4627,4224 4656,4275 4683,4322 4708,4364 4729,4400 4746,4431 4760,4457 4769,4478 4774,4494 4776,4506 4774,4514 4770,4520 4764,4523 4757,4524 4749,4524 4740,4524 4732,4522 4725,4522 4719,4521 4717,4522 4717,4524 4722,4528 4732,4534 4747,4542 4769,4553 4799,4566 4836,4582 4881,4600 4934,4620 4996,4641 5064,4662 5119,4677 5176,4692 5235,4705 5294,4718 5354,4729 5414,4740 5474,4750 5534,4759 5593,4768 5652,4775 5710,4782 5769,4789 5827,4794 5885,4800 5942,4805 5999,4809 6056,4813 6113,4817 6168,4821 6223,4824 6277,4827 6330,4829 6380,4832 6429,4834 6476,4836 6520,4838 6561,4839 6598,4841 6632,4842 6662,4843 6688,4844 6710,4844 6728,4845 6742,4845 6752,4846 6760,4846 6764,4846 6767,4846 6768,4846 "
       style="stroke:#000000;stroke-width:15; stroke-linejoin:bevel; stroke-linecap:butt; "
       id="polyline48" />
    <!-- Text -->
    <!-- Text -->
    <!-- Text -->
    <!-- Text -->
    <!-- Text -->
    <!-- Text -->
    <!-- Text -->
    <!-- Text -->
    <!-- Text -->
    <!-- Text -->
    <!-- Text -->
    <!-- Text -->
    <!-- Text -->
    <!-- Text -->
    <!-- Text -->
    <!-- Text -->
    <!-- Text -->
    <!-- Text -->
    <text
       xml:space="preserve"
       style="font-size:268.8888855px;font-style:normal;font-weight:normal;text-align:center;line-height:125%;letter-spacing:0px;word-spacing:0px;text-anchor:middle;fill:#000000;fill-opacity:1;stroke:none;font-family:Sans"
       x="883.62006"
       y="2849.6038"
       id="text3022"
       sodipodi:linespacing="125%"><tspan
         sodipodi:role="line"
         id="tspan3024"
         x="883.62006"
         y="2849.6038">rise</tspan><tspan
         sodipodi:role="line"
         x="883.62006"
         y="3185.7148"
         id="tspan3026">amplitude</tspan></text>
    <text
       xml:space="preserve"
       style="font-size:268.88891602px;font-style:normal;font-weight:normal;text-align:center;line-height:125%;letter-spacing:0px;word-spacing:0px;text-anchor:middle;fill:#000000;fill-opacity:1;stroke:none;font-family:Sans"
       x="2782.9412"
       y="2333.5107"
       id="text3022-7"
       sodipodi:linespacing="125%"><tspan
         sodipodi:role="line"
         x="2782.9412"
         y="2333.5107"
         id="tspan3026-0">rise</tspan></text>
    <text
       xml:space="preserve"
       style="font-size:268.88894653px;font-style:normal;font-weight:normal;text-align:center;line-height:125%;letter-spacing:0px;word-spacing:0px;text-anchor:middle;fill:#000000;fill-opacity:1;stroke:none;font-family:Sans"
       x="4782.0039"
       y="2415.7788"
       id="text3022-7-5"
       sodipodi:linespacing="125%"><tspan
         sodipodi:role="line"
         x="4782.0039"
         y="2415.7788"
         id="tspan3026-0-9">fall</tspan></text>
    <text
       xml:space="preserve"
       style="font-size:268.88891602px;font-style:normal;font-weight:normal;text-align:center;line-height:125%;letter-spacing:0px;word-spacing:0px;text-anchor:middle;fill:#000000;fill-opacity:1;stroke:none;font-family:Sans"
       x="6401.1719"
       y="2211.9104"
       id="text3022-9"
       sodipodi:linespacing="125%"><tspan
         sodipodi:role="line"
         id="tspan3024-3"
         x="6401.1719"
         y="2211.9104">fall</tspan><tspan
         sodipodi:role="line"
         x="6401.1719"
         y="2548.0215"
         id="tspan3026-07">amplitude</tspan></text>
    <text
       xml:space="preserve"
       style="font-size:268.8888855px;font-style:normal;font-weight:normal;line-height:125%;letter-spacing:0px;word-spacing:0px;fill:#000000;fill-opacity:1;stroke:none;font-family:Sans"
       x="610.2182"
       y="3709.678"
       id="text4865"
       sodipodi:linespacing="125%"><tspan
         sodipodi:role="line"
         id="tspan4867"
         x="610.2182"
         y="3709.678">A<tspan
   style="font-size:161.33332825px"
   id="tspan4869">rise</tspan></tspan></text>
    <text
       xml:space="preserve"
       style="font-size:268.88891602px;font-style:normal;font-weight:normal;line-height:125%;letter-spacing:0px;word-spacing:0px;fill:#000000;fill-opacity:1;stroke:none;font-family:Sans"
       x="6113.2847"
       y="3650.1692"
       id="text4865-5"
       sodipodi:linespacing="125%"><tspan
         sodipodi:role="line"
         id="tspan4867-5"
         x="6113.2847"
         y="3650.1692">A<tspan
   style="font-size:161.33333333px"
   id="tspan4895">fall</tspan></tspan></text>
    <text
       xml:space="preserve"
       style="font-size:268.88894653px;font-style:normal;font-weight:normal;line-height:125%;letter-spacing:0px;word-spacing:0px;fill:#000000;fill-opacity:1;stroke:none;font-family:Sans"
       x="4430.6484"
       y="5844.8101"
       id="text4865-5-1"
       sodipodi:linespacing="125%"><tspan
         sodipodi:role="line"
         id="tspan4867-5-6"
         x="4430.6484"
         y="5844.8101">D<tspan
   style="font-size:161.33332825px"
   id="tspan4895-9">fall</tspan></tspan></text>
    <text
       xml:space="preserve"
       style="font-size:268.88897705px;font-style:normal;font-weight:normal;line-height:125%;letter-spacing:0px;word-spacing:0px;fill:#000000;fill-opacity:1;stroke:none;font-family:Sans"
       x="2449.7668"
       y="5922.2129"
       id="text4865-5-1-5"
       sodipodi:linespacing="125%"><tspan
         sodipodi:role="line"
         id="tspan4867-5-6-4"
         x="2449.7668"
         y="5922.2129">D<tspan
   style="font-size:161.33333333px"
   id="tspan4945">rise</tspan></tspan></text>
    <text
       xml:space="preserve"
       style="font-size:268.88894653px;font-style:normal;font-weight:normal;text-align:center;line-height:125%;letter-spacing:0px;word-spacing:0px;text-anchor:middle;fill:#000000;fill-opacity:1;stroke:none;font-family:Sans"
       x="2936.2708"
       y="5300.8364"
       id="text3022-7-1"
       sodipodi:linespacing="125%"><tspan
         sodipodi:role="line"
         x="2979.0725"
         y="5300.8364"
         id="tspan3026-0-95">rise </tspan><tspan
         sodipodi:role="line"
         x="2936.2708"
         y="5636.9478"
         id="tspan4968">duration</tspan></text>
    <text
       xml:space="preserve"
       style="font-size:268.88897705px;font-style:normal;font-weight:normal;text-align:center;line-height:125%;letter-spacing:0px;word-spacing:0px;text-anchor:middle;fill:#000000;fill-opacity:1;stroke:none;font-family:Sans"
       x="4753.3677"
       y="5265.4712"
       id="text3022-7-1-9"
       sodipodi:linespacing="125%"><tspan
         sodipodi:role="line"
         x="4753.3677"
         y="5265.4712"
         id="tspan3026-0-95-3">fall</tspan><tspan
         sodipodi:role="line"
         x="4753.3677"
         y="5601.5825"
         id="tspan4968-5">duration</tspan></text>
    <text
       xml:space="preserve"
       style="font-size:268.88894653px;font-style:normal;font-weight:normal;text-align:center;line-height:125%;letter-spacing:0px;word-spacing:0px;text-anchor:middle;fill:#000000;fill-opacity:1;stroke:none;font-family:Sans"
       x="3013.3711"
       y="7539.5146"
       id="text3022-7-4"
       sodipodi:linespacing="125%"><tspan
         sodipodi:role="line"
         x="3013.3711"
         y="7539.5146"
         id="tspan3026-0-1">position</tspan></text>
    <text
       xml:space="preserve"
       style="font-size:268.88897705px;font-style:normal;font-weight:normal;text-align:center;line-height:125%;letter-spacing:0px;word-spacing:0px;text-anchor:middle;fill:#000000;fill-opacity:1;stroke:none;font-family:Sans"
       x="3893.4812"
       y="8436.0781"
       id="text3022-7-4-4"
       sodipodi:linespacing="125%"><tspan
         sodipodi:role="line"
         x="3893.4812"
         y="8436.0781"
         id="tspan3026-0-1-3"
         style="font-weight:bold;-inkscape-font-specification:Sans Bold">vowel</tspan></text>
  </g>
</svg>
